<svg width="16" height="16" viewBox="0 0 16 16" fill="none" xmlns="http://www.w3.org/2000/svg">
<path fill-rule="evenodd" clip-rule="evenodd" d="M6.83333 1.16667C4.256 1.16667 2.16667 3.256 2.16667 5.83333C2.16667 8.41066 4.256 10.5 6.83333 10.5C9.41066 10.5 11.5 8.41066 11.5 5.83333C11.5 3.256 9.41066 1.16667 6.83333 1.16667ZM1 5.83333C1 2.61167 3.61167 0 6.83333 0C10.055 0 12.6667 2.61167 12.6667 5.83333C12.6667 9.05499 10.055 11.6667 6.83333 11.6667C3.61167 11.6667 1 9.05499 1 5.83333Z" fill="#999999"/>
<path fill-rule="evenodd" clip-rule="evenodd" d="M10.5042 9.50419C10.732 9.27638 11.1013 9.27638 11.3291 9.50419L14.8291 13.0042C15.057 13.232 15.057 13.6013 14.8291 13.8291C14.6013 14.057 14.232 14.057 14.0042 13.8291L10.5042 10.3291C10.2764 10.1013 10.2764 9.73199 10.5042 9.50419Z" fill="#999999"/>
</svg>
