<svg width="14" height="14" viewBox="0 0 14 14" fill="none" xmlns="http://www.w3.org/2000/svg">
<path d="M5.40039 1.4H2.20039C1.75856 1.4 1.40039 1.75817 1.40039 2.2V5.4C1.40039 5.84183 1.75856 6.2 2.20039 6.2H5.40039C5.84222 6.2 6.20039 5.84183 6.20039 5.4V2.2C6.20039 1.75817 5.84222 1.4 5.40039 1.4Z" stroke="#737B7D" stroke-opacity="0.5"/>
<path d="M11.8004 1.4H8.60039C8.15856 1.4 7.80039 1.75817 7.80039 2.2V5.4C7.80039 5.84183 8.15856 6.2 8.60039 6.2H11.8004C12.2422 6.2 12.6004 5.84183 12.6004 5.4V2.2C12.6004 1.75817 12.2422 1.4 11.8004 1.4Z" stroke="#737B7D" stroke-opacity="0.5"/>
<path d="M11.8004 7.8H8.60039C8.15856 7.8 7.80039 8.15817 7.80039 8.6V11.8C7.80039 12.2418 8.15856 12.6 8.60039 12.6H11.8004C12.2422 12.6 12.6004 12.2418 12.6004 11.8V8.6C12.6004 8.15817 12.2422 7.8 11.8004 7.8Z" stroke="#737B7D" stroke-opacity="0.5"/>
<path d="M5.40039 7.8H2.20039C1.75856 7.8 1.40039 8.15817 1.40039 8.6V11.8C1.40039 12.2418 1.75856 12.6 2.20039 12.6H5.40039C5.84222 12.6 6.20039 12.2418 6.20039 11.8V8.6C6.20039 8.15817 5.84222 7.8 5.40039 7.8Z" stroke="#737B7D" stroke-opacity="0.5"/>
</svg>
