<svg width="14" height="14" viewBox="0 0 14 14" fill="none" xmlns="http://www.w3.org/2000/svg">
<path fill-rule="evenodd" clip-rule="evenodd" d="M7 1.3125C3.85888 1.3125 1.3125 3.85888 1.3125 7C1.3125 10.1412 3.85888 12.6875 7 12.6875C10.1412 12.6875 12.6875 10.1412 12.6875 7C12.6875 3.85888 10.1412 1.3125 7 1.3125ZM0 7C0 3.134 3.134 0 7 0C10.866 0 14 3.134 14 7C14 10.866 10.866 14 7 14C3.134 14 0 10.866 0 7Z" fill="#333333"/>
<path d="M4.873 10V8.749H4.198V7.867H4.873V7.309H4.198V6.427H4.873V3.655H7.123C7.603 3.655 8.005 3.739 8.329 3.907C8.659 4.069 8.908 4.291 9.076 4.573C9.244 4.855 9.328 5.176 9.328 5.536C9.328 5.914 9.244 6.235 9.076 6.499C8.908 6.763 8.662 6.964 8.338 7.102C8.014 7.24 7.615 7.309 7.141 7.309H6.529V7.867H7.816V8.749H6.529V10H4.873ZM6.502 6.427H6.916C7.204 6.427 7.426 6.367 7.582 6.247C7.744 6.121 7.825 5.914 7.825 5.626C7.825 5.344 7.744 5.143 7.582 5.023C7.426 4.897 7.204 4.834 6.916 4.834H6.502V6.427Z" fill="#333333"/>
</svg>
