<svg width="14" height="13" viewBox="0 0 14 13" fill="none" xmlns="http://www.w3.org/2000/svg">
<path d="M7.22391 0.203762L8.98791 3.77376C9.02291 3.84376 9.09291 3.89976 9.17691 3.90676L13.1109 4.48076C13.3139 4.50876 13.3979 4.76076 13.2509 4.90076L10.3949 7.67976C10.3389 7.73576 10.3109 7.81976 10.3249 7.89676L10.9969 11.8168C11.0319 12.0198 10.8219 12.1738 10.6399 12.0758L7.11891 10.2278C7.04891 10.1928 6.95791 10.1928 6.88791 10.2278L3.35991 12.0758C3.17791 12.1738 2.96791 12.0198 3.00291 11.8168L3.67491 7.89676C3.68891 7.81976 3.66091 7.73576 3.60491 7.67976L0.755904 4.90076C0.608904 4.76076 0.692904 4.50876 0.895904 4.48076L4.82991 3.90676C4.91391 3.89276 4.98391 3.84376 5.01891 3.77376L6.78291 0.203762C6.86691 0.0147617 7.13291 0.0147617 7.22391 0.203762Z" fill="#E41434" fill-opacity="0.4"/>
</svg>
