<svg width="13" height="12" viewBox="0 0 13 12" fill="none" xmlns="http://www.w3.org/2000/svg">
<path d="M6.60039 2.8002H13.0004M6.60039 9.20019H13.0004M2.20039 1.2002H3.80039C4.24222 1.2002 4.60039 1.55837 4.60039 2.0002V3.6002C4.60039 4.04202 4.24222 4.4002 3.80039 4.4002H2.20039C1.75856 4.4002 1.40039 4.04202 1.40039 3.6002V2.0002C1.40039 1.55837 1.75856 1.2002 2.20039 1.2002ZM2.20039 7.60019H3.80039C4.24222 7.60019 4.60039 7.95837 4.60039 8.40019V10.0002C4.60039 10.442 4.24222 10.8002 3.80039 10.8002H2.20039C1.75856 10.8002 1.40039 10.442 1.40039 10.0002V8.40019C1.40039 7.95837 1.75856 7.60019 2.20039 7.60019Z" stroke="#333333"/>
</svg>
