<svg width="14" height="14" viewBox="0 0 14 14" fill="none" xmlns="http://www.w3.org/2000/svg">
<g clip-path="url(#clip0_466_8654)">
<path fill-rule="evenodd" clip-rule="evenodd" d="M6.19753 13.9879C7.36953 14.1214 8.23959 13.1288 8.2396 12.0778V11.6397C8.2396 10.4775 8.80548 9.78212 9.39243 9.35319C9.6796 9.14328 9.97019 9.00013 10.1961 8.90826C10.4613 9.36431 10.9553 9.67091 11.5208 9.67091H12.3958C13.2415 9.67091 13.927 8.98534 13.927 8.13965V1.57715C13.927 0.731463 13.2415 0.0458986 12.3958 0.0458985L11.5208 0.0458984C10.8429 0.0458984 10.268 0.486369 10.0664 1.09671C9.6075 1.03119 9.13255 0.896661 8.55689 0.7336L8.55671 0.733552C8.4241 0.695988 8.28614 0.656911 8.14179 0.616815C7.13208 0.336337 5.91855 0.0459981 4.3021 0.0459979C2.80955 0.0459978 1.70364 0.179293 1.04573 1.04281C0.736827 1.44825 0.575852 1.95455 0.460539 2.50588C0.357877 2.99673 0.278727 3.59412 0.187163 4.28521L0.187158 4.28525L0.151604 4.55301C-0.0663843 6.18782 -0.0802765 7.4562 0.316637 8.3293C0.530091 8.79888 0.860878 9.15404 1.31108 9.37944C1.74361 9.59592 2.24313 9.67099 2.77085 9.67099H4.01537L4.00218 9.76926L4.00217 9.76934C3.9412 10.2228 3.8646 10.7926 3.8646 11.2022C3.8646 12.0086 3.99696 12.706 4.43819 13.2142C4.88563 13.7296 5.52952 13.9118 6.19753 13.9879ZM9.98953 2.4095C9.37239 2.33209 8.77284 2.1609 8.17648 1.99064H8.17647C8.04772 1.95387 7.9191 1.91716 7.7905 1.88143C6.83148 1.61504 5.74814 1.35849 4.3021 1.35849C2.73215 1.35849 2.30682 1.55333 2.08974 1.83824C1.96114 2.00703 1.84868 2.28002 1.74524 2.77459C1.65332 3.21411 1.58114 3.7581 1.48757 4.46327L1.45259 4.72648C1.23305 6.37293 1.28686 7.29204 1.51147 7.78613C1.60878 8.00018 1.73416 8.12345 1.89854 8.20574C2.0806 8.29686 2.3541 8.35849 2.77085 8.35849H4.30242C4.90193 8.35849 5.43518 8.86337 5.35695 9.52741C5.33722 9.69488 5.31402 9.86778 5.29095 10.0397C5.2336 10.4671 5.1771 10.8881 5.1771 11.2022C5.1771 11.9098 5.30341 12.2088 5.42927 12.3537C5.54891 12.4916 5.78051 12.6193 6.34614 12.6838C6.6145 12.7144 6.92709 12.4764 6.9271 12.0778V11.6397C6.9271 9.95826 7.78307 8.90362 8.61801 8.29349C9.0293 7.99293 9.43688 7.79747 9.74033 7.67687C9.83308 7.64001 9.91708 7.60977 9.98953 7.5854V2.4095ZM11.5208 8.3584C11.4 8.3584 11.302 8.26046 11.302 8.13965V1.79599V1.57715C11.302 1.45634 11.4 1.3584 11.5208 1.3584H12.3958C12.5166 1.3584 12.6145 1.45634 12.6145 1.57715V8.13965C12.6145 8.26046 12.5166 8.3584 12.3958 8.3584H11.5208Z" fill="#8F9597"/>
</g>
<defs>
<clipPath id="clip0_466_8654">
<rect width="14" height="14" fill="white"/>
</clipPath>
</defs>
</svg>
