<svg width="49" height="40" viewBox="0 0 49 40" fill="none" xmlns="http://www.w3.org/2000/svg">
<g clip-path="url(#clip0_519_4843)">
<path d="M49 20H34.8654C32.2633 20 30.1538 17.9013 30.1538 15.3125V0L3.76923 0C1.68755 0 0 1.67893 0 3.75L0 36.25C0 38.3211 1.68755 40 3.76923 40L45.2308 40C47.3125 40 49 38.3211 49 36.25V20ZM48.4167 16.875H34.8654C33.998 16.875 33.2949 16.1754 33.2949 15.3125V0.673077L48.4167 16.875Z" fill="#DD574C"/>
<path d="M5.913 33V25.245H9.202C10.0307 25.245 10.665 25.4467 11.105 25.85C11.5523 26.246 11.776 26.796 11.776 27.5C11.776 28.204 11.5523 28.7577 11.105 29.161C10.665 29.5643 10.0307 29.766 9.202 29.766H7.057V33H5.913ZM7.057 28.853H9.081C9.60167 28.853 9.994 28.7357 10.258 28.501C10.522 28.2663 10.654 27.9327 10.654 27.5C10.654 27.0747 10.522 26.7447 10.258 26.51C9.994 26.2753 9.60167 26.158 9.081 26.158H7.057V28.853ZM13.4532 33V25.245H16.1372C17.0099 25.245 17.7469 25.3953 18.3482 25.696C18.9569 25.9967 19.4152 26.4367 19.7232 27.016C20.0386 27.588 20.1962 28.2883 20.1962 29.117C20.1962 29.9383 20.0386 30.6387 19.7232 31.218C19.4152 31.7973 18.9569 32.241 18.3482 32.549C17.7469 32.8497 17.0099 33 16.1372 33H13.4532ZM14.5972 32.043H16.0712C17.0686 32.043 17.8092 31.801 18.2932 31.317C18.7846 30.833 19.0302 30.0997 19.0302 29.117C19.0302 28.1343 18.7846 27.4047 18.2932 26.928C17.8092 26.444 17.0686 26.202 16.0712 26.202H14.5972V32.043ZM22.0462 33V25.245H27.0182V26.158H23.1902V28.644H26.7652V29.557H23.1902V33H22.0462Z" fill="white"/>
</g>
<defs>
<clipPath id="clip0_519_4843">
<rect width="40" height="49" fill="white" transform="matrix(0 -1 -1 0 49 40)"/>
</clipPath>
</defs>
</svg>
