<svg width="32" height="32" viewBox="0 0 32 32" fill="none" xmlns="http://www.w3.org/2000/svg">
<circle cx="16" cy="16" r="16" fill="#F3F3F3"/>
<path d="M12.5259 15.1422C12.4764 15.0747 12.3774 15.0361 12.2653 15.0361C12.2106 15.0361 12.1558 15.0426 12.1063 15.0618C12.0307 15.0876 11.8561 15.1679 11.8222 15.3929C11.8013 15.5215 11.8665 15.6147 11.9916 15.6629C12.0359 15.6758 12.0854 15.6822 12.1324 15.6822C12.2966 15.6822 12.4868 15.6018 12.552 15.3929C12.5911 15.2708 12.5598 15.1904 12.5259 15.1422Z" fill="#FF0019"/>
<path d="M10.4097 15.6949C10.3836 15.6756 10.3289 15.6466 10.2559 15.6338H10.2507C10.2403 15.6338 10.2299 15.6274 10.2116 15.6274H10.2012C10.1908 15.6274 10.1803 15.6209 10.1673 15.6209L9.92753 15.5952C9.9119 15.5952 9.90147 15.5952 9.88323 15.5952H9.86238C9.81807 15.5952 9.76334 15.5952 9.71383 15.5952H9.69297C9.67212 15.5952 9.65388 15.5952 9.62782 15.5952H9.61739C9.59654 15.5952 9.56788 15.5952 9.54703 15.6016H9.5366C9.51575 15.6016 9.4923 15.6081 9.47145 15.6081H9.46102C9.4115 15.6145 9.3672 15.6209 9.3255 15.6274H9.32029C9.27598 15.6338 9.23428 15.6402 9.18998 15.6531C9.11961 15.6659 9.05967 15.6852 9.01536 15.7077C8.96584 15.727 8.93457 15.7688 8.91111 15.8299L8.51758 17.1091H9.18216L9.38284 16.4374C9.42193 16.3152 9.50272 16.1063 9.6617 16.0066C9.80244 15.9327 9.90147 15.9006 10.0109 15.9006C10.0657 15.9006 10.1308 15.907 10.2012 15.9263C10.2116 15.9263 10.2559 15.9456 10.295 15.9745L10.3341 16.0002L10.4201 15.7238L10.4097 15.6949Z" fill="#FF0019"/>
<path d="M12.3497 15.8618C12.3341 15.8296 12.3002 15.8071 12.269 15.8071H11.7738C11.7347 15.8071 11.6982 15.8393 11.6878 15.8811L11.3125 17.0928H12.0109L12.3654 15.9678C12.3732 15.9357 12.3654 15.8939 12.3497 15.8618Z" fill="#FF0019"/>
<path d="M16.1967 15.634C15.9673 15.634 15.7614 15.6886 15.5738 15.7883L15.7588 15.2033C15.7693 15.1776 15.764 15.1422 15.7536 15.1165C15.738 15.0908 15.7145 15.0747 15.6937 15.0747H15.1542C15.1203 15.0747 15.0942 15.094 15.0838 15.1358L14.4609 17.0997H15.1594L15.3783 16.4118C15.4487 16.1836 15.6468 16.0229 15.8631 16.0229C15.9777 16.0229 16.0377 16.0551 16.0377 16.1226C16.0377 16.1708 16.0325 16.2158 16.0168 16.264L15.7614 17.0997H16.4651L16.7257 16.264C16.7466 16.1836 16.77 16.0808 16.77 16.0229C16.7648 15.7819 16.5511 15.634 16.1967 15.634Z" fill="#FF0019"/>
<path d="M11.548 15.1292C11.5323 15.1035 11.5089 15.0874 11.488 15.0874H10.9303C10.8964 15.0874 10.8703 15.1067 10.8599 15.1485L10.2422 17.0995H10.9563L11.5506 15.216C11.5662 15.1838 11.561 15.1549 11.548 15.1292Z" fill="#FF0019"/>
<path d="M14.6164 15.6722C14.6007 15.6464 14.5773 15.6304 14.5564 15.6304H13.5582C13.394 15.6368 13.2741 15.6497 13.1829 15.6722C12.8936 15.7525 12.7138 15.8875 12.5783 16.1286C12.4427 16.4114 12.4193 16.675 12.5079 16.8679C12.5835 17.0286 12.7372 17.125 12.9223 17.125C13.0708 17.125 13.2324 17.0639 13.3966 16.9579C13.4409 16.9257 13.5009 16.8711 13.566 16.7972L13.6911 16.6557C13.5113 17.1925 13.2767 17.2954 13.0213 17.2954C12.7972 17.2954 12.646 17.2279 12.5522 17.1893L12.5183 17.1764L12.3984 17.5525L12.4375 17.5654C12.5731 17.62 12.8206 17.6522 13.0708 17.6522C13.3862 17.6522 13.6442 17.5975 13.8293 17.4914C14.0534 17.3629 14.1394 17.2889 14.1994 17.0864L14.619 15.7622C14.632 15.7268 14.632 15.6947 14.6164 15.6722ZM13.897 15.8875C13.0109 17.8932 12.2369 15.8747 13.897 15.8875V15.8875Z" fill="#FF0019"/>
<path d="M8.65187 15.6722C8.63623 15.6464 8.61278 15.6304 8.59193 15.6304H7.59896C7.43476 15.6368 7.31488 15.6497 7.22366 15.6722C6.93437 15.7525 6.75453 15.8875 6.61901 16.1286C6.48349 16.4114 6.46003 16.675 6.54864 16.8679C6.62422 17.0286 6.77799 17.125 6.96303 17.125C7.11159 17.125 7.27318 17.0639 7.43737 16.9579C7.48167 16.9257 7.54162 16.8711 7.60677 16.7972L7.7006 16.6911L7.53119 17.1089H8.23487L8.65969 15.7557C8.66751 15.7268 8.66751 15.6947 8.65187 15.6722ZM7.9091 15.8875C7.03079 17.8932 6.25674 15.8747 7.9091 15.8875V15.8875Z" fill="#FF0019"/>
<path d="M18.227 15.1001H17.9768C17.9169 15.1001 17.7527 15.1676 17.4816 15.309C17.2132 15.4505 17.0516 15.5565 17.0021 15.6305L16.8379 15.8876H17.208L16.9943 16.5401C16.9786 16.6012 16.9682 16.6558 16.9682 16.7008C16.9682 16.8069 17.0073 16.8969 17.0777 16.958C17.1819 17.0447 17.3461 17.093 17.5728 17.093C17.8126 17.093 17.9924 17.0447 18.1071 16.9451C18.1462 16.913 18.1775 16.8583 18.2114 16.7908V16.7169H17.8335C17.7084 16.7169 17.7579 16.5433 17.7839 16.4212L17.9638 15.8844H18.3573L18.4433 15.6272H18.0446L18.227 15.1001Z" fill="#FF0019"/>
<path d="M3.66677 14.5216C4.55549 13.8338 5.72306 14.1649 6.28079 15.2609C6.35116 15.3959 6.40589 15.5374 6.45019 15.6788C6.40068 15.4506 6.3251 15.2224 6.21564 15.007C5.64748 13.882 4.44342 13.5477 3.53125 14.2549C2.61386 14.9556 2.34282 16.4406 2.91358 17.5656C3.02304 17.7809 3.15335 17.9641 3.3019 18.1184C3.2159 18.0027 3.13771 17.8838 3.06734 17.7488C2.50962 16.6559 2.77545 15.2095 3.66677 14.5216Z" fill="#FF0019"/>
<path d="M3.34961 15.9297C3.73793 15.7465 4.24354 15.6275 4.90551 15.634C4.44161 16.6915 3.98813 17.315 3.5972 17.6525C4.12626 17.6397 4.92897 16.9872 5.76295 15.0972C4.52762 15.0811 3.764 15.4572 3.34961 15.9297Z" fill="#FF0019"/>
<path d="M27.8512 15.7046C27.8251 15.6853 27.7704 15.6564 27.6974 15.6436H27.6922C27.6818 15.6436 27.6714 15.6371 27.6531 15.6371H27.6427C27.6323 15.6371 27.6218 15.6307 27.6088 15.6307L27.369 15.605C27.3534 15.605 27.343 15.605 27.3247 15.605H27.3039C27.2595 15.605 27.2048 15.605 27.1553 15.605H27.1344C27.1136 15.605 27.0953 15.605 27.0693 15.605H27.0589C27.038 15.605 27.0093 15.605 26.9885 15.6114H26.9781C26.9572 15.6114 26.9338 15.6178 26.9129 15.6178H26.9025C26.853 15.6243 26.8087 15.6307 26.767 15.6371H26.7617C26.7174 15.6436 26.6757 15.65 26.6314 15.6628C26.5611 15.6757 26.5011 15.695 26.4568 15.7175C26.4073 15.7368 26.376 15.7786 26.3525 15.8396L25.959 17.1189H26.6236L26.8243 16.4471C26.8634 16.325 26.9442 16.1161 27.1032 16.0164C27.2439 15.9425 27.343 15.9103 27.4524 15.9103C27.5072 15.9103 27.5723 15.9168 27.6427 15.9361C27.6531 15.9361 27.6974 15.9553 27.7365 15.9843L27.7756 16.01L27.8616 15.7336L27.8512 15.7046Z" fill="#333333"/>
<path d="M25.8969 15.1582H25.6467C25.5868 15.1582 25.4226 15.2257 25.1515 15.3671C24.8831 15.5086 24.7215 15.6146 24.672 15.6886L24.5078 15.9457H24.8779L24.6642 16.5982C24.6485 16.6593 24.6381 16.7139 24.6381 16.7589C24.6381 16.865 24.6772 16.955 24.7476 17.0161C24.8518 17.1028 25.016 17.1511 25.2428 17.1511C25.4825 17.1511 25.6624 17.1028 25.777 17.0032C25.8161 16.9711 25.8474 16.9164 25.8813 16.8489V16.7718H25.506C25.3809 16.7718 25.4304 16.5982 25.4565 16.4761L25.6363 15.9393H26.0298L26.1158 15.6821H25.7171L25.8969 15.1582Z" fill="#333333"/>
<path d="M20.6532 15.9233L20.8017 15.6693C20.8382 15.6179 20.8356 15.5986 20.8356 15.5986C20.833 15.5826 20.8174 15.5729 20.8043 15.5633C20.7574 15.5343 20.6949 15.5151 20.6219 15.5022C20.5463 15.4893 20.4682 15.4829 20.3926 15.4829C20.2388 15.4829 20.1033 15.5022 19.9912 15.544C19.8792 15.5858 19.7775 15.6404 19.6941 15.7079C19.6107 15.7754 19.5352 15.859 19.4752 15.9522C19.4153 16.0454 19.358 16.1451 19.3084 16.2511C19.2876 16.2961 19.2641 16.3476 19.2433 16.399C19.2224 16.4536 19.2042 16.5019 19.1938 16.5436C19.1703 16.6208 19.1573 16.6979 19.1547 16.7654C19.1521 16.8329 19.1625 16.8908 19.1912 16.9422C19.2172 16.9937 19.2641 17.0322 19.3319 17.0644C19.3997 17.0965 19.4987 17.1126 19.6212 17.1126C19.6577 17.1126 19.6967 17.1126 19.7411 17.1094C19.7827 17.1062 19.8271 17.0997 19.8714 17.0933C19.9157 17.0869 19.96 17.0772 20.0043 17.0676C20.046 17.0579 20.0877 17.0483 20.1241 17.0354C20.1554 17.0226 20.1841 17.0129 20.2049 17.0001C20.2232 16.9904 20.2388 16.9808 20.2492 16.9679C20.2597 16.9551 20.2675 16.9422 20.2727 16.9294C20.2805 16.9133 20.2857 16.894 20.2935 16.8715L20.3639 16.6433C20.3691 16.6272 20.3691 16.6176 20.3717 16.6111C20.3613 16.6111 20.3352 16.6111 20.304 16.6144C20.231 16.624 20.1658 16.6304 20.1111 16.6336C20.0564 16.6369 20.0069 16.6401 19.9652 16.6401C19.887 16.6401 19.8323 16.6208 19.801 16.5854C19.7671 16.5469 19.7645 16.4826 19.788 16.399C19.7984 16.3636 19.814 16.3186 19.8375 16.2672C19.9313 16.0583 20.072 15.9554 20.2571 15.9554C20.304 15.9554 20.3431 15.9586 20.3795 15.9618C20.416 15.9651 20.4629 15.9715 20.5203 15.9779C20.5463 15.9811 20.5672 15.9811 20.5802 15.9811C20.5932 15.9811 20.6037 15.9811 20.6115 15.9779C20.6167 15.9747 20.6245 15.9715 20.6297 15.9651C20.6323 15.9586 20.6428 15.9426 20.6532 15.9233Z" fill="#333333"/>
<path d="M22.2952 15.8653C22.3161 15.7914 22.3213 15.7271 22.3082 15.6724C22.2952 15.6178 22.2692 15.576 22.2301 15.5406C22.191 15.5053 22.1415 15.4764 22.0789 15.4603C22.0164 15.4442 21.946 15.4346 21.873 15.4346C21.7323 15.4346 21.6046 15.4539 21.4951 15.4924C21.3857 15.531 21.2866 15.5824 21.2058 15.6467C21.1224 15.711 21.0495 15.7817 20.9869 15.8653C20.9244 15.9489 20.867 16.0356 20.8201 16.1224C20.7445 16.2606 20.6846 16.4021 20.6455 16.5435C20.6168 16.6464 20.6038 16.7331 20.6116 16.8071C20.6194 16.8778 20.6403 16.9356 20.6768 16.9839C20.7133 17.0321 20.7654 17.0642 20.8305 17.0867C20.8983 17.1092 20.9765 17.1221 21.0625 17.1221C21.1042 17.1221 21.1537 17.1189 21.2032 17.1156C21.2553 17.1124 21.3075 17.106 21.3596 17.0996C21.4143 17.0931 21.4638 17.0835 21.5134 17.0739C21.5603 17.0642 21.6046 17.0514 21.6385 17.0385C21.6958 17.016 21.7349 16.9967 21.7557 16.9774C21.774 16.9581 21.7922 16.9228 21.8079 16.8714L21.8574 16.701C21.8652 16.6721 21.8652 16.6592 21.8652 16.656C21.86 16.6528 21.8496 16.6528 21.8261 16.6528C21.8131 16.6528 21.7974 16.6528 21.7818 16.656C21.688 16.6656 21.6046 16.6721 21.5342 16.6785C21.4638 16.6849 21.3883 16.6849 21.3101 16.6849C21.2553 16.6817 21.2189 16.6721 21.198 16.6496C21.185 16.6367 21.1641 16.6046 21.1798 16.5435C21.185 16.521 21.1954 16.5017 21.2084 16.4792L21.2163 16.4696H21.2267C21.3231 16.4664 21.43 16.4535 21.5394 16.4406C21.6489 16.4246 21.7557 16.3956 21.8574 16.3506C21.9564 16.3089 22.0476 16.2478 22.1258 16.1706C22.2014 16.0903 22.2587 15.9874 22.2952 15.8653ZM21.7166 15.9585C21.6984 16.0196 21.6593 16.0646 21.5942 16.0903C21.5368 16.116 21.4664 16.1321 21.383 16.1385L21.3335 16.1417L21.3622 16.0903C21.4117 16.0003 21.456 15.9392 21.5003 15.9039C21.5446 15.8653 21.5863 15.8492 21.6254 15.8492C21.6541 15.8492 21.6932 15.8524 21.7114 15.8878C21.7219 15.9071 21.7219 15.9328 21.7166 15.9585Z" fill="#333333"/>
<path d="M29.3637 15.8653C29.3845 15.7914 29.3897 15.7271 29.3767 15.6724C29.3637 15.6178 29.3376 15.576 29.2985 15.5406C29.2594 15.5053 29.2099 15.4764 29.1473 15.4603C29.0848 15.4442 29.0144 15.4346 28.9414 15.4346C28.8007 15.4346 28.673 15.4539 28.5635 15.4924C28.4541 15.531 28.355 15.5824 28.2742 15.6467C28.1908 15.711 28.1178 15.7817 28.0553 15.8653C27.9927 15.9489 27.9354 16.0356 27.8885 16.1224C27.8129 16.2606 27.7529 16.4021 27.7139 16.5435C27.6852 16.6464 27.6721 16.7331 27.68 16.8071C27.6878 16.8778 27.7086 16.9356 27.7451 16.9839C27.7816 17.0321 27.8337 17.0642 27.8989 17.0867C27.9667 17.1092 28.0449 17.1221 28.1309 17.1221C28.1726 17.1221 28.2221 17.1189 28.2716 17.1156C28.3237 17.1124 28.3759 17.106 28.428 17.0996C28.4827 17.0931 28.5322 17.0835 28.5818 17.0739C28.6287 17.0642 28.673 17.0514 28.7069 17.0385C28.7642 17.016 28.8033 16.9967 28.8242 16.9774C28.8424 16.9581 28.8606 16.9228 28.8763 16.8714L28.9258 16.701C28.9336 16.6721 28.9336 16.6592 28.9336 16.656C28.9284 16.6528 28.918 16.6528 28.8945 16.6528C28.8815 16.6528 28.8659 16.6528 28.8502 16.656C28.7564 16.6656 28.673 16.6721 28.6026 16.6785C28.5322 16.6849 28.4567 16.6849 28.3785 16.6849C28.3237 16.6817 28.2873 16.6721 28.2664 16.6496C28.2534 16.6367 28.2325 16.6046 28.2482 16.5435C28.2534 16.521 28.2638 16.5017 28.2768 16.4824L28.2846 16.4728H28.2951C28.3915 16.4696 28.4984 16.4567 28.6078 16.4439C28.7173 16.4278 28.8242 16.3989 28.9258 16.3539C29.0249 16.3121 29.1161 16.251 29.1943 16.1739C29.2724 16.0903 29.3298 15.9874 29.3637 15.8653ZM28.7851 15.9585C28.7668 16.0196 28.7277 16.0646 28.6626 16.0903C28.6052 16.116 28.5349 16.1321 28.4514 16.1385L28.4019 16.1417L28.4306 16.0903C28.4801 16.0003 28.5244 15.9392 28.5687 15.9039C28.613 15.8653 28.6547 15.8492 28.6938 15.8492C28.7225 15.8492 28.7616 15.8524 28.7799 15.8878C28.7903 15.9071 28.7929 15.9328 28.7851 15.9585Z" fill="#333333"/>
<path d="M23.8386 15.6406C23.6119 15.6406 23.4034 15.6952 23.2209 15.7948L23.3773 15.2773C23.3773 15.2773 23.1506 15.3706 22.9082 15.4927C22.6658 15.6148 22.5485 15.6984 22.5485 15.6984L22.1133 17.0998H22.8091L23.0255 16.4184C23.0958 16.1902 23.2913 16.0295 23.5076 16.0295C23.6223 16.0295 23.6822 16.0616 23.6822 16.1291C23.6822 16.1773 23.677 16.2223 23.6614 16.2706L23.406 17.0998H24.107L24.3676 16.2706C24.3885 16.1902 24.412 16.0906 24.412 16.0295C24.4015 15.7884 24.1904 15.6406 23.8386 15.6406Z" fill="#333333"/>
</svg>
