<svg width="14" height="14" viewBox="0 0 14 14" fill="none" xmlns="http://www.w3.org/2000/svg">
<path fill-rule="evenodd" clip-rule="evenodd" d="M7.72954 0.0580113C6.55754 -0.0755525 5.68748 0.917078 5.68747 1.9681V2.40612C5.68747 3.56836 5.12159 4.26376 4.53466 4.69268C4.24746 4.90255 3.95688 5.04571 3.73093 5.13764C3.46575 4.68158 2.97181 4.37497 2.40625 4.37497H1.53125C0.685564 4.37497 0 5.06054 0 5.90622V12.4688C0 13.3144 0.685563 14 1.53125 14H2.40625C3.08411 14 3.6591 13.5595 3.86061 12.9491C4.31954 13.0147 4.79451 13.1492 5.37018 13.3123L5.37035 13.3123C5.50297 13.3499 5.64093 13.389 5.78528 13.4291C6.795 13.7095 8.00852 13.9998 9.625 13.9998C11.1175 13.9998 12.2234 13.8666 12.8813 13.003C13.1903 12.5976 13.3512 12.0913 13.4665 11.5399C13.5691 11.0492 13.6483 10.4517 13.74 9.76063L13.7755 9.49288C13.9934 7.85804 14.0073 6.58967 13.6104 5.71657C13.3969 5.24702 13.0662 4.89178 12.616 4.66644C12.1835 4.44995 11.684 4.37487 11.1562 4.37487H9.91174L9.92486 4.27657V4.27656C9.98585 3.82311 10.0625 3.25334 10.0625 2.84362C10.0625 2.03727 9.93011 1.33983 9.48885 0.831619C9.04146 0.316242 8.39755 0.134139 7.72954 0.0580113ZM3.9375 11.6364C4.55466 11.7138 5.15423 11.885 5.75059 12.0552H5.7506C5.87935 12.092 6.00796 12.1287 6.13657 12.1644C7.09559 12.4309 8.17893 12.6873 9.625 12.6873C11.1949 12.6873 11.6203 12.4926 11.8374 12.2077C11.9659 12.0389 12.0784 11.7659 12.1818 11.2713C12.2738 10.8317 12.3459 10.2877 12.4395 9.58257L12.4744 9.31937C12.6941 7.67294 12.6402 6.75383 12.4156 6.25974C12.3182 6.04568 12.1929 5.92241 12.0285 5.84013C11.8464 5.749 11.573 5.68737 11.1562 5.68737H9.62465C9.0251 5.68737 8.49189 5.18252 8.57013 4.51844C8.58985 4.35102 8.61305 4.17808 8.63612 4.00618C8.69347 3.57878 8.74997 3.15775 8.74997 2.84362C8.74997 2.1361 8.62366 1.83705 8.4978 1.69208C8.37816 1.55428 8.14656 1.42653 7.58093 1.36207C7.31257 1.33149 6.99997 1.56946 6.99997 1.96811V2.40612C6.99997 4.08762 6.144 5.14223 5.30906 5.75237C4.89776 6.05294 4.49015 6.2484 4.18671 6.36899C4.09397 6.40586 4.01002 6.4361 3.9375 6.46047V11.6364ZM2.40625 5.68747C2.52706 5.68747 2.625 5.7854 2.625 5.90622V12.2498V12.4688C2.625 12.5895 2.52706 12.6875 2.40625 12.6875H1.53125C1.41044 12.6875 1.3125 12.5895 1.3125 12.4688V5.90622C1.3125 5.7854 1.41044 5.68747 1.53125 5.68747H2.40625Z" fill="#8F9597"/>
</svg>
