<svg width="14" height="14" viewBox="0 0 14 14" fill="none" xmlns="http://www.w3.org/2000/svg">
<path d="M2.80052 6.99987C2.80052 7.2576 2.59159 7.46654 2.33385 7.46654C2.07612 7.46654 1.86719 7.2576 1.86719 6.99987C1.86719 6.74214 2.07612 6.5332 2.33385 6.5332C2.59159 6.5332 2.80052 6.74214 2.80052 6.99987Z" stroke="#8F9597"/>
<path d="M7.46719 6.99987C7.46719 7.2576 7.25825 7.46654 7.00052 7.46654C6.74279 7.46654 6.53385 7.2576 6.53385 6.99987C6.53385 6.74214 6.74279 6.5332 7.00052 6.5332C7.25825 6.5332 7.46719 6.74214 7.46719 6.99987Z" stroke="#8F9597"/>
<path d="M12.1339 6.99987C12.1339 7.2576 11.9249 7.46654 11.6672 7.46654C11.4095 7.46654 11.2005 7.2576 11.2005 6.99987C11.2005 6.74214 11.4095 6.5332 11.6672 6.5332C11.9249 6.5332 12.1339 6.74214 12.1339 6.99987Z" stroke="#8F9597"/>
</svg>
