<svg width="10" height="10" viewBox="0 0 10 10" fill="none" xmlns="http://www.w3.org/2000/svg">
<path fill-rule="evenodd" clip-rule="evenodd" d="M0.122039 0.122039C0.284757 -0.0406796 0.548576 -0.0406796 0.711294 0.122039L5 4.41074L9.2887 0.122039C9.45142 -0.0406796 9.71524 -0.0406796 9.87796 0.122039C10.0407 0.284757 10.0407 0.548576 9.87796 0.711294L5.58926 5L9.87796 9.2887C10.0407 9.45142 10.0407 9.71524 9.87796 9.87796C9.71524 10.0407 9.45142 10.0407 9.2887 9.87796L5 5.58926L0.711294 9.87796C0.548576 10.0407 0.284757 10.0407 0.122039 9.87796C-0.0406796 9.71524 -0.0406796 9.45142 0.122039 9.2887L4.41074 5L0.122039 0.711294C-0.0406796 0.548576 -0.0406796 0.284757 0.122039 0.122039Z" fill="#8E8E93"/>
</svg>
