<svg width="17" height="17" viewBox="0 0 17 17" fill="none" xmlns="http://www.w3.org/2000/svg">
<path d="M0.782227 1.49597H2.19323C2.89873 1.49597 3.51923 1.96347 3.71473 2.64347L6.14573 11.0755L14.0422 9.90247C14.7817 9.79197 15.3172 9.14597 15.2832 8.39797L15.1727 5.45697C15.1642 5.14247 14.9007 4.89597 14.5862 4.89597H4.36923" stroke="white" stroke-width="1.5" stroke-miterlimit="10" stroke-linecap="round" stroke-linejoin="round"/>
<path d="M5.28709 16.0565C6.2072 16.0565 6.95309 15.3106 6.95309 14.3905C6.95309 13.4704 6.2072 12.7245 5.28709 12.7245C4.36699 12.7245 3.62109 13.4704 3.62109 14.3905C3.62109 15.3106 4.36699 16.0565 5.28709 16.0565Z" fill="white"/>
<path d="M14.0932 16.0565C15.0134 16.0565 15.7592 15.3106 15.7592 14.3905C15.7592 13.4704 15.0134 12.7245 14.0932 12.7245C13.1731 12.7245 12.4272 13.4704 12.4272 14.3905C12.4272 15.3106 13.1731 16.0565 14.0932 16.0565Z" fill="white"/>
</svg>
