<svg width="18" height="18" viewBox="0 0 18 18" fill="none" xmlns="http://www.w3.org/2000/svg">
<path d="M2.88908 15.804H2.87108C2.28608 15.804 1.80908 15.327 1.80908 14.742V11.619C1.80908 11.034 2.28608 10.557 2.87108 10.557H2.88908C3.47408 10.557 3.95108 11.034 3.95108 11.619V14.742C3.95108 15.327 3.47408 15.804 2.88908 15.804Z" fill="#B5B5B9"/>
<path d="M15.1288 15.8041H15.1108C14.5258 15.8041 14.0488 15.3271 14.0488 14.7421V5.04906C14.0488 4.46406 14.5258 3.98706 15.1108 3.98706H15.1288C15.7138 3.98706 16.1908 4.46406 16.1908 5.04906V14.7421C16.1908 15.3271 15.7228 15.8041 15.1288 15.8041Z" fill="#B5B5B9"/>
<path d="M6.96623 15.804H6.94823C6.36323 15.804 5.88623 15.327 5.88623 14.742V3.411C5.88623 2.826 6.36323 2.349 6.94823 2.349H6.96623C7.55123 2.349 8.02823 2.826 8.02823 3.411V14.742C8.02823 15.327 7.56023 15.804 6.96623 15.804Z" fill="#B5B5B9"/>
<path d="M11.0522 15.804H11.0342C10.4492 15.804 9.97217 15.327 9.97217 14.742V7.87499C9.97217 7.28999 10.4492 6.81299 11.0342 6.81299H11.0522C11.6372 6.81299 12.1142 7.28999 12.1142 7.87499V14.751C12.1142 15.327 11.6372 15.804 11.0522 15.804Z" fill="#B5B5B9"/>
</svg>
