<svg width="14" height="16" viewBox="0 0 14 16" fill="none" xmlns="http://www.w3.org/2000/svg">
<path d="M10.8157 4.52C11.7877 4.52 12.5757 3.73202 12.5757 2.76C12.5757 1.78798 11.7877 1 10.8157 1C9.84364 1 9.05566 1.78798 9.05566 2.76C9.05566 3.73202 9.84364 4.52 10.8157 4.52Z" stroke="#B5B5B9" stroke-width="1.5" stroke-miterlimit="10" stroke-linecap="round" stroke-linejoin="round"/>
<path d="M2.72777 9.83202C3.6998 9.83202 4.48778 9.04404 4.48778 8.07201C4.48778 7.09999 3.6998 6.31201 2.72777 6.31201C1.75575 6.31201 0.967773 7.09999 0.967773 8.07201C0.967773 9.04404 1.75575 9.83202 2.72777 9.83202Z" stroke="#B5B5B9" stroke-width="1.5" stroke-miterlimit="10" stroke-linecap="round" stroke-linejoin="round"/>
<path d="M4.20801 7.11203L9.34402 3.72803" stroke="#B5B5B9" stroke-width="1.5" stroke-miterlimit="10" stroke-linecap="round" stroke-linejoin="round"/>
<path d="M10.8157 15.144C11.7877 15.144 12.5757 14.356 12.5757 13.384C12.5757 12.412 11.7877 11.624 10.8157 11.624C9.84364 11.624 9.05566 12.412 9.05566 13.384C9.05566 14.356 9.84364 15.144 10.8157 15.144Z" stroke="#B5B5B9" stroke-width="1.5" stroke-miterlimit="10" stroke-linecap="round" stroke-linejoin="round"/>
<path d="M4.20801 9.03223L9.34402 12.4162" stroke="#B5B5B9" stroke-width="1.5" stroke-miterlimit="10" stroke-linecap="round" stroke-linejoin="round"/>
</svg>
