<svg width="12" height="12" viewBox="0 0 12 12" fill="none" xmlns="http://www.w3.org/2000/svg">
<path d="M6.19164 1.03214L7.70364 4.09214C7.73364 4.15214 7.79365 4.20014 7.86565 4.20614L11.2376 4.69814C11.4116 4.72214 11.4836 4.93814 11.3576 5.05814L8.90965 7.44014C8.86165 7.48814 8.83765 7.56014 8.84965 7.62614L9.42565 10.9861C9.45565 11.1601 9.27565 11.2921 9.11965 11.2081L6.10164 9.62414C6.04164 9.59414 5.96364 9.59414 5.90364 9.62414L2.87964 11.2081C2.72364 11.2921 2.54364 11.1601 2.57364 10.9861L3.14964 7.62614C3.16164 7.56014 3.13764 7.48814 3.08964 7.44014L0.647639 5.05814C0.521639 4.93814 0.593639 4.72214 0.767639 4.69814L4.13964 4.20614C4.21164 4.19414 4.27164 4.15214 4.30164 4.09214L5.81364 1.03214C5.88564 0.870145 6.11364 0.870145 6.19164 1.03214Z" fill="#E41434"/>
</svg>
