<svg width="18" height="18" viewBox="0 0 18 18" fill="none" xmlns="http://www.w3.org/2000/svg">
<path d="M16.1996 8.99961L9.29078 15.9084C8.336 16.8632 7.04104 17.3996 5.69078 17.3996C2.879 17.3996 0.599609 15.1202 0.599609 12.3084C0.599609 10.9582 1.136 9.66322 2.09078 8.70844L9.2055 1.59372C9.84202 0.957201 10.7053 0.599609 11.6055 0.599609C13.48 0.599609 14.9996 2.11921 14.9996 3.99372C14.9996 4.8939 14.642 5.7572 14.0055 6.39372L7.09666 13.3026C6.77841 13.6208 6.34675 13.7996 5.89667 13.7996C4.95941 13.7996 4.19961 13.0398 4.19961 12.1026C4.19961 11.6525 4.37841 11.2208 4.69667 10.9026L11.3996 4.19961" stroke="#E41434"/>
</svg>
