<svg width="28" height="28" viewBox="0 0 28 28" fill="none" xmlns="http://www.w3.org/2000/svg">
<rect x="0.5" y="0.5" width="27" height="27" rx="5.5" fill="white" stroke="#F3F3F3"/>
<path d="M21.1996 13.9996L14.2908 20.9084C13.336 21.8632 12.041 22.3996 10.6908 22.3996C7.879 22.3996 5.59961 20.1202 5.59961 17.3084C5.59961 15.9582 6.136 14.6632 7.09078 13.7084L14.2055 6.59372C14.842 5.9572 15.7053 5.59961 16.6055 5.59961C18.48 5.59961 19.9996 7.11921 19.9996 8.99372C19.9996 9.8939 19.642 10.7572 19.0055 11.3937L12.0967 18.3026C11.7784 18.6208 11.3468 18.7996 10.8967 18.7996C9.95941 18.7996 9.19961 18.0398 9.19961 17.1026C9.19961 16.6525 9.37841 16.2208 9.69667 15.9026L16.3996 9.19961" stroke="#E41434"/>
</svg>
