<svg width="188" height="91" viewBox="0 0 188 91" fill="none" xmlns="http://www.w3.org/2000/svg">
<path d="M72.2209 38.488C71.9106 38.0861 71.2899 37.8564 70.5877 37.8564C70.2447 37.8564 69.9017 37.8947 69.5914 38.0095C69.1177 38.1626 68.0235 38.6411 67.8112 39.9806C67.6805 40.7461 68.0888 41.3011 68.8728 41.5881C69.1504 41.6647 69.4607 41.7029 69.7547 41.7029C70.7836 41.7029 71.9759 41.2245 72.3842 39.9806C72.6292 39.2534 72.4332 38.775 72.2209 38.488Z" fill="#FF0019"/>
<path d="M58.9592 41.7798C58.7959 41.6649 58.4529 41.4927 57.9956 41.4162H57.963C57.8976 41.4162 57.8323 41.3779 57.718 41.3779H57.6526C57.5873 41.3779 57.522 41.3396 57.4403 41.3396L55.9378 41.1865C55.8398 41.1865 55.7745 41.1865 55.6601 41.1865H55.5295C55.2518 41.1865 54.9088 41.1865 54.5985 41.1865H54.4679C54.3372 41.1865 54.2229 41.1865 54.0596 41.1865H53.9942C53.8636 41.1865 53.6839 41.1865 53.5533 41.2248H53.4879C53.3573 41.2248 53.2103 41.2631 53.0796 41.2631H53.0143C52.704 41.3013 52.4263 41.3396 52.165 41.3779H52.1324C51.8547 41.4162 51.5934 41.4544 51.3158 41.531C50.8748 41.6075 50.4991 41.7224 50.2215 41.8563C49.9112 41.9711 49.7152 42.2199 49.5682 42.5835L47.1021 50.1999H51.2668L52.5243 46.2004C52.7693 45.4732 53.2756 44.2293 54.2719 43.636C55.1538 43.1959 55.7745 43.0045 56.4604 43.0045C56.8034 43.0045 57.2117 43.0428 57.6526 43.1576C57.718 43.1576 57.9956 43.2724 58.2406 43.4447L58.4856 43.5978L59.0246 41.952L58.9592 41.7798Z" fill="#FF0019"/>
<path d="M71.1267 42.7745C71.0287 42.5832 70.8164 42.4492 70.6204 42.4492H67.5173C67.2723 42.4492 67.0436 42.6406 66.9783 42.8894L64.6265 50.1039H69.0035L71.2247 43.4061C71.2736 43.2147 71.2247 42.9659 71.1267 42.7745Z" fill="#FF0019"/>
<path d="M95.2332 41.4157C93.796 41.4157 92.5057 41.7411 91.3298 42.3343L92.4894 38.8514C92.5547 38.6983 92.522 38.4878 92.4567 38.3347C92.3587 38.1816 92.2117 38.0859 92.0811 38.0859H88.7003C88.488 38.0859 88.3247 38.2008 88.2594 38.4495L84.356 50.1421H88.733L90.1049 46.0468C90.5459 44.6881 91.7871 43.7313 93.1427 43.7313C93.8613 43.7313 94.2369 43.9227 94.2369 44.3245C94.2369 44.6116 94.2043 44.8795 94.1063 45.1665L92.5057 50.1421H96.9154L98.5486 45.1665C98.6793 44.6881 98.8263 44.0758 98.8263 43.7313C98.7936 42.296 97.4544 41.4157 95.2332 41.4157Z" fill="#FF0019"/>
<path d="M66.0965 38.4114C65.9985 38.2583 65.8515 38.1626 65.7209 38.1626H62.2258C62.0135 38.1626 61.8501 38.2774 61.7848 38.5262L57.9141 50.1422H62.3891L66.1128 38.9281C66.2108 38.7367 66.1782 38.5645 66.0965 38.4114Z" fill="#FF0019"/>
<path d="M85.3196 41.6457C85.2216 41.4927 85.0746 41.397 84.944 41.397H78.6887C77.6598 41.4352 76.9085 41.5118 76.3369 41.6457C74.524 42.1242 73.3971 42.9279 72.5478 44.3632C71.6986 46.0472 71.5515 47.6164 72.1068 48.7646C72.5805 49.7215 73.5441 50.2956 74.7037 50.2956C75.6346 50.2956 76.6472 49.932 77.6761 49.3005C77.9538 49.1091 78.3294 48.7838 78.7377 48.3436L79.5217 47.5016C78.3948 50.6974 76.9249 51.3098 75.3243 51.3098C73.9197 51.3098 72.9725 50.908 72.3845 50.6783L72.1722 50.6018L71.4209 52.8408L71.6659 52.9173C72.5152 53.2426 74.0667 53.434 75.6346 53.434C77.6108 53.434 79.2277 53.1087 80.3873 52.4772C81.7919 51.7117 82.3308 51.2715 82.7065 50.0659L85.3359 42.1816C85.4176 41.9711 85.4176 41.7797 85.3196 41.6457ZM80.8119 42.9279C75.259 54.8693 70.4083 42.8514 80.8119 42.9279V42.9279Z" fill="#FF0019"/>
<path d="M47.9513 41.6457C47.8533 41.4927 47.7063 41.397 47.5757 41.397H41.3531C40.3242 41.4352 39.5729 41.5118 39.0012 41.6457C37.1884 42.1242 36.0614 42.9279 35.2122 44.3632C34.3629 46.0472 34.2159 47.6164 34.7712 48.7646C35.2448 49.7215 36.2084 50.2956 37.368 50.2956C38.299 50.2956 39.3116 49.932 40.3405 49.3005C40.6181 49.1091 40.9938 48.7838 41.4021 48.3436L41.99 47.7121L40.9284 50.1999H45.3381L48.0003 42.1433C48.0493 41.9711 48.0493 41.7797 47.9513 41.6457ZM43.2966 42.9279C37.7927 54.8693 32.942 42.8514 43.2966 42.9279V42.9279Z" fill="#FF0019"/>
<path d="M107.956 38.2393H106.388C106.012 38.2393 104.984 38.6411 103.285 39.4831C101.603 40.3252 100.59 40.9567 100.28 41.3968L99.251 42.9278H101.57L100.231 46.8125C100.133 47.1761 100.068 47.5015 100.068 47.7694C100.068 48.4009 100.313 48.9367 100.754 49.3003C101.407 49.817 102.436 50.1041 103.857 50.1041C105.359 50.1041 106.486 49.817 107.205 49.2238C107.45 49.0324 107.646 48.7071 107.858 48.3052V47.8651H105.49C104.706 47.8651 105.016 46.8317 105.18 46.1045L106.306 42.9086H108.773L109.312 41.3777H106.813L107.956 38.2393Z" fill="#FF0019"/>
<path d="M16.7078 34.7947C22.2771 30.6994 29.5939 32.6705 33.089 39.1962C33.53 39.9999 33.8729 40.8419 34.1506 41.6839C33.8403 40.3252 33.3666 38.9665 32.6807 37.6844C29.1203 30.9865 21.5748 28.9963 15.8585 33.2063C10.1096 37.3782 8.41103 46.2194 11.9878 52.9172C12.6737 54.1994 13.4903 55.2902 14.4213 56.2088C13.8823 55.5198 13.3924 54.8118 12.9514 54.008C9.45629 47.5015 11.1222 38.89 16.7078 34.7947Z" fill="#FF0019"/>
<path d="M14.7153 43.1762C17.1488 42.0854 20.3173 41.3773 24.4657 41.4156C21.5585 47.7116 18.7167 51.4241 16.2669 53.4335C19.5823 53.3569 24.6127 49.4722 29.839 38.2198C22.0975 38.1241 17.3122 40.3631 14.7153 43.1762Z" fill="#FF0019"/>
<path d="M168.271 41.8374C168.107 41.7226 167.764 41.5503 167.307 41.4738H167.275C167.209 41.4738 167.144 41.4355 167.03 41.4355H166.964C166.899 41.4355 166.834 41.3972 166.752 41.3972L165.249 41.2441C165.151 41.2441 165.086 41.2441 164.972 41.2441H164.841C164.563 41.2441 164.22 41.2441 163.91 41.2441H163.779C163.649 41.2441 163.534 41.2441 163.371 41.2441H163.306C163.175 41.2441 162.995 41.2441 162.865 41.2824H162.799C162.669 41.2824 162.522 41.3207 162.391 41.3207H162.326C162.016 41.359 161.738 41.3972 161.477 41.4355H161.444C161.166 41.4738 160.905 41.5121 160.627 41.5886C160.186 41.6651 159.811 41.78 159.533 41.9139C159.223 42.0287 159.027 42.2775 158.88 42.6411L156.414 50.2576H160.578L161.836 46.258C162.081 45.5308 162.587 44.2869 163.583 43.6936C164.465 43.2535 165.086 43.0621 165.772 43.0621C166.115 43.0621 166.523 43.1004 166.964 43.2152C167.03 43.2152 167.307 43.33 167.552 43.5023L167.797 43.6554L168.336 42.0096L168.271 41.8374Z" fill="#333333"/>
<path d="M156.021 38.584H154.454C154.078 38.584 153.049 38.9859 151.35 39.8279C149.668 40.6699 148.656 41.3014 148.345 41.7415L147.316 43.2725H149.636L148.296 47.1573C148.198 47.5209 148.133 47.8462 148.133 48.1141C148.133 48.7456 148.378 49.2814 148.819 49.645C149.472 50.1617 150.501 50.4488 151.922 50.4488C153.425 50.4488 154.552 50.1617 155.27 49.5685C155.515 49.3771 155.711 49.0518 155.923 48.6499V48.1906H153.572C152.788 48.1906 153.098 47.1573 153.261 46.4301L154.388 43.2342H156.854L157.393 41.7033H154.895L156.021 38.584Z" fill="#333333"/>
<path d="M123.161 43.1383L124.092 41.6265C124.321 41.3204 124.304 41.2055 124.304 41.2055C124.288 41.1098 124.19 41.0524 124.108 40.995C123.814 40.8228 123.422 40.708 122.965 40.6314C122.491 40.5549 122.001 40.5166 121.528 40.5166C120.564 40.5166 119.715 40.6314 119.013 40.8802C118.31 41.129 117.673 41.4543 117.151 41.8562C116.628 42.2581 116.154 42.7556 115.779 43.3106C115.403 43.8655 115.044 44.4588 114.734 45.0903C114.603 45.3582 114.456 45.6644 114.325 45.9706C114.195 46.2959 114.08 46.583 114.015 46.8317C113.868 47.291 113.786 47.7503 113.77 48.1522C113.754 48.5541 113.819 48.8985 113.999 49.2047C114.162 49.5109 114.456 49.7405 114.881 49.9319C115.305 50.1233 115.926 50.219 116.693 50.219C116.922 50.219 117.167 50.219 117.445 50.1998C117.706 50.1807 117.984 50.1424 118.261 50.1041C118.539 50.0659 118.817 50.0085 119.094 49.951C119.356 49.8936 119.617 49.8362 119.846 49.7597C120.042 49.6831 120.221 49.6257 120.352 49.5492C120.466 49.4918 120.564 49.4344 120.63 49.3578C120.695 49.2813 120.744 49.2047 120.776 49.1282C120.825 49.0325 120.858 48.9177 120.907 48.7837L121.348 47.425C121.381 47.3293 121.381 47.2719 121.397 47.2336C121.332 47.2336 121.168 47.2336 120.972 47.2528C120.515 47.3102 120.107 47.3484 119.764 47.3676C119.421 47.3867 119.111 47.4058 118.849 47.4058C118.359 47.4058 118.016 47.291 117.82 47.0805C117.608 46.8509 117.592 46.4681 117.739 45.9706C117.804 45.7601 117.902 45.4922 118.049 45.186C118.637 43.9421 119.519 43.3297 120.679 43.3297C120.972 43.3297 121.217 43.3488 121.446 43.368C121.675 43.3871 121.969 43.4254 122.328 43.4637C122.491 43.4828 122.622 43.4828 122.704 43.4828C122.785 43.4828 122.851 43.4828 122.9 43.4637C122.932 43.4445 122.981 43.4254 123.014 43.3871C123.03 43.3488 123.096 43.2532 123.161 43.1383Z" fill="#333333"/>
<path d="M133.45 42.7938C133.581 42.3537 133.614 41.9709 133.532 41.6456C133.45 41.3203 133.287 41.0715 133.042 40.861C132.797 40.6505 132.487 40.4783 132.095 40.3826C131.703 40.2869 131.262 40.2295 130.805 40.2295C129.923 40.2295 129.122 40.3443 128.436 40.574C127.75 40.8036 127.13 41.1098 126.624 41.4925C126.101 41.8753 125.644 42.2963 125.252 42.7938C124.86 43.2914 124.5 43.8081 124.206 44.3248C123.733 45.1476 123.357 45.9897 123.112 46.8317C122.932 47.4441 122.851 47.9608 122.9 48.4009C122.949 48.8219 123.079 49.1664 123.308 49.4534C123.537 49.7405 123.863 49.9318 124.272 50.0658C124.696 50.1998 125.186 50.2763 125.725 50.2763C125.987 50.2763 126.297 50.2572 126.607 50.238C126.934 50.2189 127.26 50.1806 127.587 50.1424C127.93 50.1041 128.24 50.0467 128.551 49.9893C128.845 49.9318 129.122 49.8553 129.335 49.7787C129.694 49.6448 129.939 49.53 130.07 49.4151C130.184 49.3003 130.298 49.0898 130.396 48.7836L130.707 47.7694C130.756 47.5972 130.756 47.5206 130.756 47.5015C130.723 47.4823 130.658 47.4823 130.511 47.4823C130.429 47.4823 130.331 47.4823 130.233 47.5015C129.645 47.5589 129.122 47.5972 128.681 47.6354C128.24 47.6737 127.767 47.6737 127.277 47.6737C126.934 47.6546 126.705 47.5972 126.574 47.4632C126.493 47.3867 126.362 47.1953 126.46 46.8317C126.493 46.6977 126.558 46.5829 126.64 46.4489L126.689 46.3915H126.754C127.358 46.3724 128.028 46.2959 128.714 46.2193C129.4 46.1236 130.07 45.9514 130.707 45.6835C131.327 45.4347 131.899 45.0711 132.389 44.6118C132.862 44.1334 133.222 43.521 133.45 42.7938ZM129.825 43.3488C129.71 43.7124 129.465 43.9803 129.057 44.1334C128.698 44.2865 128.257 44.3822 127.734 44.4204L127.424 44.4396L127.603 44.1334C127.914 43.5976 128.191 43.234 128.469 43.0235C128.747 42.7938 129.008 42.6981 129.253 42.6981C129.433 42.6981 129.678 42.7173 129.792 42.9278C129.857 43.0426 129.857 43.1957 129.825 43.3488Z" fill="#333333"/>
<path d="M177.743 42.7938C177.874 42.3537 177.907 41.9709 177.825 41.6456C177.743 41.3203 177.58 41.0715 177.335 40.861C177.09 40.6505 176.78 40.4783 176.388 40.3826C175.996 40.2869 175.555 40.2295 175.097 40.2295C174.216 40.2295 173.415 40.3443 172.729 40.574C172.043 40.8036 171.423 41.1098 170.916 41.4925C170.394 41.8753 169.937 42.2963 169.545 42.7938C169.153 43.2914 168.793 43.8081 168.499 44.3248C168.026 45.1476 167.65 45.9897 167.405 46.8317C167.225 47.4441 167.144 47.9608 167.193 48.4009C167.242 48.8219 167.372 49.1664 167.601 49.4534C167.83 49.7405 168.156 49.9318 168.565 50.0658C168.989 50.1998 169.479 50.2763 170.018 50.2763C170.28 50.2763 170.59 50.2572 170.9 50.238C171.227 50.2189 171.553 50.1806 171.88 50.1424C172.223 50.1041 172.533 50.0467 172.844 49.9893C173.138 49.9318 173.415 49.8553 173.628 49.7787C173.987 49.6448 174.232 49.53 174.363 49.4151C174.477 49.3003 174.591 49.0898 174.689 48.7836L175 47.7694C175.049 47.5972 175.048 47.5206 175.048 47.5015C175.016 47.4823 174.95 47.4823 174.804 47.4823C174.722 47.4823 174.624 47.4823 174.526 47.5015C173.938 47.5589 173.415 47.5972 172.974 47.6354C172.533 47.6737 172.06 47.6737 171.57 47.6737C171.227 47.6546 170.998 47.5972 170.867 47.4632C170.786 47.3867 170.655 47.1953 170.753 46.8317C170.786 46.6977 170.851 46.5829 170.933 46.4681L170.982 46.4107H171.047C171.651 46.3915 172.321 46.315 173.007 46.2384C173.693 46.1428 174.363 45.9705 175 45.7026C175.62 45.4538 176.192 45.0902 176.682 44.631C177.172 44.1334 177.531 43.521 177.743 42.7938ZM174.118 43.3488C174.003 43.7124 173.758 43.9803 173.35 44.1334C172.991 44.2865 172.55 44.3822 172.027 44.4204L171.717 44.4396L171.896 44.1334C172.207 43.5976 172.484 43.234 172.762 43.0235C173.04 42.7938 173.301 42.6981 173.546 42.6981C173.726 42.6981 173.971 42.7173 174.085 42.9278C174.15 43.0426 174.167 43.1957 174.118 43.3488Z" fill="#333333"/>
<path d="M143.119 41.4544C141.698 41.4544 140.392 41.7798 139.248 42.373L140.228 39.292C140.228 39.292 138.807 39.847 137.288 40.5742C135.77 41.3014 135.035 41.7989 135.035 41.7989L132.307 50.1425H136.668L138.023 46.0855C138.464 44.7268 139.689 43.77 141.045 43.77C141.763 43.77 142.139 43.9614 142.139 44.3632C142.139 44.6503 142.106 44.9182 142.008 45.2053L140.408 50.1425H144.801L146.434 45.2053C146.565 44.7268 146.712 44.1336 146.712 43.77C146.647 42.3347 145.324 41.4544 143.119 41.4544Z" fill="#333333"/>
</svg>
