<svg width="231" height="40" viewBox="0 0 231 40" fill="none" xmlns="http://www.w3.org/2000/svg">
<g clip-path="url(#clip0_711_9400)">
<path d="M49 20H34.8654C32.2633 20 30.1538 17.9013 30.1538 15.3125V0L3.76923 0C1.68755 0 0 1.67893 0 3.75L0 36.25C0 38.3211 1.68755 40 3.76923 40L45.2308 40C47.3125 40 49 38.3211 49 36.25V20ZM48.4167 16.875H34.8654C33.998 16.875 33.2949 16.1754 33.2949 15.3125V0.673077L48.4167 16.875Z" fill="#DD574C"/>
<path d="M5.913 33V25.245H9.202C10.0307 25.245 10.665 25.4467 11.105 25.85C11.5523 26.246 11.776 26.796 11.776 27.5C11.776 28.204 11.5523 28.7577 11.105 29.161C10.665 29.5643 10.0307 29.766 9.202 29.766H7.057V33H5.913ZM7.057 28.853H9.081C9.60167 28.853 9.994 28.7357 10.258 28.501C10.522 28.2663 10.654 27.9327 10.654 27.5C10.654 27.0747 10.522 26.7447 10.258 26.51C9.994 26.2753 9.60167 26.158 9.081 26.158H7.057V28.853ZM13.4532 33V25.245H16.1372C17.0099 25.245 17.7469 25.3953 18.3482 25.696C18.9569 25.9967 19.4152 26.4367 19.7232 27.016C20.0386 27.588 20.1962 28.2883 20.1962 29.117C20.1962 29.9383 20.0386 30.6387 19.7232 31.218C19.4152 31.7973 18.9569 32.241 18.3482 32.549C17.7469 32.8497 17.0099 33 16.1372 33H13.4532ZM14.5972 32.043H16.0712C17.0686 32.043 17.8092 31.801 18.2932 31.317C18.7846 30.833 19.0302 30.0997 19.0302 29.117C19.0302 28.1343 18.7846 27.4047 18.2932 26.928C17.8092 26.444 17.0686 26.202 16.0712 26.202H14.5972V32.043ZM22.0462 33V25.245H27.0182V26.158H23.1902V28.644H26.7652V29.557H23.1902V33H22.0462Z" fill="white"/>
</g>
<path d="M70.12 17V9.972H76.21V17H75.076V10.868H71.254V17H70.12ZM78.7022 20.024V11.596C78.7022 11.3347 78.6882 11.0687 78.6602 10.798C78.6415 10.518 78.6182 10.2427 78.5902 9.972H79.6822L79.8362 11.638H79.6682C79.8175 11.0873 80.1208 10.6533 80.5782 10.336C81.0355 10.0093 81.5815 9.846 82.2162 9.846C82.8508 9.846 83.3968 9.99067 83.8542 10.28C84.3208 10.5693 84.6848 10.9847 84.9462 11.526C85.2075 12.0673 85.3382 12.7207 85.3382 13.486C85.3382 14.242 85.2075 14.8907 84.9462 15.432C84.6942 15.9733 84.3348 16.3933 83.8682 16.692C83.4015 16.9813 82.8508 17.126 82.2162 17.126C81.5908 17.126 81.0495 16.9673 80.5922 16.65C80.1348 16.3327 79.8315 15.8987 79.6822 15.348H79.8362V20.024H78.7022ZM81.9922 16.202C82.6642 16.202 83.1962 15.9733 83.5882 15.516C83.9895 15.0493 84.1902 14.3727 84.1902 13.486C84.1902 12.59 83.9895 11.9133 83.5882 11.456C83.1962 10.9893 82.6642 10.756 81.9922 10.756C81.3295 10.756 80.7975 10.9893 80.3962 11.456C80.0042 11.9133 79.8082 12.59 79.8082 13.486C79.8082 14.3727 80.0042 15.0493 80.3962 15.516C80.7975 15.9733 81.3295 16.202 81.9922 16.202ZM90.5691 17.126C89.4678 17.126 88.5998 16.8087 87.9651 16.174C87.3304 15.53 87.0131 14.6387 87.0131 13.5C87.0131 12.7627 87.1531 12.1233 87.4331 11.582C87.7131 11.0313 88.1051 10.6067 88.6091 10.308C89.1131 10 89.6918 9.846 90.3451 9.846C90.9891 9.846 91.5304 9.98133 91.9691 10.252C92.4078 10.5227 92.7438 10.91 92.9771 11.414C93.2104 11.9087 93.3271 12.4967 93.3271 13.178V13.598H87.8811V12.884H92.5851L92.3471 13.066C92.3471 12.3193 92.1791 11.736 91.8431 11.316C91.5071 10.896 91.0078 10.686 90.3451 10.686C89.6451 10.686 89.0991 10.9333 88.7071 11.428C88.3151 11.9133 88.1191 12.5713 88.1191 13.402V13.528C88.1191 14.4053 88.3338 15.0727 88.7631 15.53C89.2018 15.978 89.8131 16.202 90.5971 16.202C91.0171 16.202 91.4091 16.1413 91.7731 16.02C92.1464 15.8893 92.5011 15.6793 92.8371 15.39L93.2291 16.188C92.9211 16.4867 92.5291 16.72 92.0531 16.888C91.5864 17.0467 91.0918 17.126 90.5691 17.126ZM97.667 17.126C97.0697 17.126 96.505 17.0467 95.973 16.888C95.4504 16.72 95.021 16.4913 94.685 16.202L95.077 15.404C95.4224 15.684 95.8097 15.8987 96.239 16.048C96.6777 16.188 97.1537 16.258 97.667 16.258C98.3577 16.258 98.857 16.1507 99.165 15.936C99.473 15.7213 99.627 15.418 99.627 15.026C99.627 14.6433 99.4964 14.354 99.235 14.158C98.9737 13.9527 98.591 13.85 98.087 13.85H96.435V13.01H97.947C98.395 13.01 98.745 12.912 98.997 12.716C99.2584 12.5107 99.389 12.2307 99.389 11.876C99.389 11.512 99.249 11.2273 98.969 11.022C98.689 10.8073 98.2504 10.7 97.653 10.7C97.177 10.7 96.7337 10.7653 96.323 10.896C95.9217 11.0173 95.539 11.2133 95.175 11.484L94.797 10.714C95.1797 10.4153 95.623 10.196 96.127 10.056C96.631 9.916 97.177 9.846 97.765 9.846C98.6424 9.846 99.3097 10.0187 99.767 10.364C100.224 10.7 100.453 11.1807 100.453 11.806C100.453 12.2447 100.304 12.6227 100.005 12.94C99.7064 13.248 99.3097 13.43 98.815 13.486V13.318C99.375 13.3367 99.8277 13.5047 100.173 13.822C100.518 14.1393 100.691 14.5547 100.691 15.068C100.691 15.6933 100.434 16.1927 99.921 16.566C99.417 16.9393 98.6657 17.126 97.667 17.126ZM105.83 17.126C104.729 17.126 103.861 16.8087 103.226 16.174C102.592 15.53 102.274 14.6387 102.274 13.5C102.274 12.7627 102.414 12.1233 102.694 11.582C102.974 11.0313 103.366 10.6067 103.87 10.308C104.374 10 104.953 9.846 105.606 9.846C106.25 9.846 106.792 9.98133 107.23 10.252C107.669 10.5227 108.005 10.91 108.238 11.414C108.472 11.9087 108.588 12.4967 108.588 13.178V13.598H103.142V12.884H107.846L107.608 13.066C107.608 12.3193 107.44 11.736 107.104 11.316C106.768 10.896 106.269 10.686 105.606 10.686C104.906 10.686 104.36 10.9333 103.968 11.428C103.576 11.9133 103.38 12.5713 103.38 13.402V13.528C103.38 14.4053 103.595 15.0727 104.024 15.53C104.463 15.978 105.074 16.202 105.858 16.202C106.278 16.202 106.67 16.1413 107.034 16.02C107.408 15.8893 107.762 15.6793 108.098 15.39L108.49 16.188C108.182 16.4867 107.79 16.72 107.314 16.888C106.848 17.0467 106.353 17.126 105.83 17.126ZM110.604 17V9.972H111.738V12.912H115.602V9.972H116.736V17H115.602V13.822H111.738V17H110.604ZM120.67 17V10.882H118.122V9.972H124.366V10.882H121.804V17H120.67ZM128.473 17.126C127.847 17.126 127.301 16.9813 126.835 16.692C126.368 16.3933 126.004 15.9733 125.743 15.432C125.491 14.8907 125.365 14.242 125.365 13.486C125.365 12.7207 125.491 12.0673 125.743 11.526C126.004 10.9847 126.368 10.5693 126.835 10.28C127.301 9.99067 127.847 9.846 128.473 9.846C129.107 9.846 129.653 10.0093 130.111 10.336C130.577 10.6533 130.885 11.0873 131.035 11.638H130.867L131.021 9.972H132.113C132.085 10.2427 132.057 10.518 132.029 10.798C132.01 11.0687 132.001 11.3347 132.001 11.596V17H130.867V15.348H131.021C130.871 15.8987 130.563 16.3327 130.097 16.65C129.63 16.9673 129.089 17.126 128.473 17.126ZM128.697 16.202C129.369 16.202 129.901 15.9733 130.293 15.516C130.685 15.0493 130.881 14.3727 130.881 13.486C130.881 12.59 130.685 11.9133 130.293 11.456C129.901 10.9893 129.369 10.756 128.697 10.756C128.034 10.756 127.502 10.9893 127.101 11.456C126.709 11.9133 126.513 12.59 126.513 13.486C126.513 14.3727 126.709 15.0493 127.101 15.516C127.502 15.9733 128.034 16.202 128.697 16.202ZM140.564 18.82V17H134.488V9.972H135.622V16.104H139.304V9.972H140.41V16.104H141.53V18.82H140.564ZM143.246 17V9.972H144.282V15.95H143.904L148.384 9.972H149.336V17H148.314V11.008H148.692L144.212 17H143.246ZM151.212 17L152.332 15.068C152.51 14.76 152.734 14.5127 153.004 14.326C153.275 14.13 153.56 14.032 153.858 14.032H154.054L154.04 14.158C153.247 14.158 152.631 13.9807 152.192 13.626C151.754 13.262 151.534 12.7393 151.534 12.058C151.534 11.4047 151.749 10.896 152.178 10.532C152.608 10.1587 153.247 9.972 154.096 9.972H157.218V17H156.154V14.284H155.104C154.712 14.284 154.381 14.382 154.11 14.578C153.84 14.774 153.611 15.0213 153.424 15.32L152.472 17H151.212ZM154.292 13.486H156.154V10.756H154.292C153.723 10.756 153.298 10.8773 153.018 11.12C152.748 11.3627 152.612 11.694 152.612 12.114C152.612 12.5527 152.748 12.8933 153.018 13.136C153.298 13.3693 153.723 13.486 154.292 13.486ZM163.506 17V9.972H164.64V12.926H165.97L168.294 9.972H169.54L166.88 13.374L166.572 13.024C166.843 13.052 167.076 13.1173 167.272 13.22C167.468 13.3227 167.655 13.4767 167.832 13.682C168.019 13.8873 168.22 14.172 168.434 14.536L169.89 17H168.672L167.384 14.816C167.226 14.5453 167.072 14.34 166.922 14.2C166.782 14.06 166.619 13.962 166.432 13.906C166.255 13.85 166.031 13.822 165.76 13.822H164.64V17H163.506ZM174.18 17.126C173.508 17.126 172.92 16.9813 172.416 16.692C171.921 16.3933 171.538 15.9733 171.268 15.432C170.997 14.8813 170.862 14.2327 170.862 13.486C170.862 12.73 170.997 12.0813 171.268 11.54C171.538 10.9987 171.921 10.5833 172.416 10.294C172.92 9.99533 173.508 9.846 174.18 9.846C174.861 9.846 175.449 9.99533 175.944 10.294C176.448 10.5833 176.835 10.9987 177.106 11.54C177.386 12.0813 177.526 12.73 177.526 13.486C177.526 14.2327 177.386 14.8813 177.106 15.432C176.835 15.9733 176.448 16.3933 175.944 16.692C175.449 16.9813 174.861 17.126 174.18 17.126ZM174.18 16.202C174.852 16.202 175.384 15.9733 175.776 15.516C176.168 15.0493 176.364 14.3727 176.364 13.486C176.364 12.59 176.163 11.9133 175.762 11.456C175.37 10.9893 174.842 10.756 174.18 10.756C173.517 10.756 172.99 10.9893 172.598 11.456C172.206 11.9133 172.01 12.59 172.01 13.486C172.01 14.3727 172.206 15.0493 172.598 15.516C172.99 15.9733 173.517 16.202 174.18 16.202ZM179.574 17V9.972H180.526L183.158 14.69L185.804 9.972H186.756V17H185.748V11.232H186.042L183.452 15.866H182.878L180.274 11.218H180.582V17H179.574ZM189.194 17V9.972H195.284V17H194.15V10.868H190.328V17H189.194ZM200.45 17.126C199.825 17.126 199.279 16.9813 198.812 16.692C198.346 16.3933 197.982 15.9733 197.72 15.432C197.468 14.8907 197.342 14.242 197.342 13.486C197.342 12.7207 197.468 12.0673 197.72 11.526C197.982 10.9847 198.346 10.5693 198.812 10.28C199.279 9.99067 199.825 9.846 200.45 9.846C201.085 9.846 201.631 10.0093 202.088 10.336C202.555 10.6533 202.863 11.0873 203.012 11.638H202.844L202.998 9.972H204.09C204.062 10.2427 204.034 10.518 204.006 10.798C203.988 11.0687 203.978 11.3347 203.978 11.596V17H202.844V15.348H202.998C202.849 15.8987 202.541 16.3327 202.074 16.65C201.608 16.9673 201.066 17.126 200.45 17.126ZM200.674 16.202C201.346 16.202 201.878 15.9733 202.27 15.516C202.662 15.0493 202.858 14.3727 202.858 13.486C202.858 12.59 202.662 11.9133 202.27 11.456C201.878 10.9893 201.346 10.756 200.674 10.756C200.012 10.756 199.48 10.9893 199.078 11.456C198.686 11.9133 198.49 12.59 198.49 13.486C198.49 14.3727 198.686 15.0493 199.078 15.516C199.48 15.9733 200.012 16.202 200.674 16.202ZM206.465 17V9.972H207.599V12.912H211.463V9.972H212.597V17H211.463V13.822H207.599V17H206.465ZM215.033 17V9.972H216.069V15.95H215.691L220.171 9.972H221.123V17H220.101V11.008H220.479L215.999 17H215.033ZM223.559 17V9.972H224.595V15.95H224.217L228.697 9.972H229.649V17H228.627V11.008H229.005L224.525 17H223.559Z" fill="#333333"/>
<path d="M72.13 35.09C71.8233 35.09 71.5233 35.0567 71.23 34.99C70.9367 34.9233 70.66 34.8267 70.4 34.7C70.1467 34.5733 69.9233 34.42 69.73 34.24L70.04 33.6C70.3667 33.86 70.7 34.0533 71.04 34.18C71.38 34.3 71.7433 34.36 72.13 34.36C72.6367 34.36 73.0333 34.2233 73.32 33.95C73.6067 33.6767 73.75 33.3167 73.75 32.87C73.75 32.41 73.6133 32.0333 73.34 31.74C73.0667 31.4467 72.6867 31.3 72.2 31.3C71.8533 31.3 71.5433 31.37 71.27 31.51C70.9967 31.6433 70.76 31.8533 70.56 32.14H69.96V27.95H74.14V28.65H70.76V31.46H70.54C70.72 31.18 70.9667 30.9667 71.28 30.82C71.6 30.6667 71.96 30.59 72.36 30.59C72.8133 30.59 73.2033 30.6833 73.53 30.87C73.8633 31.0567 74.12 31.3167 74.3 31.65C74.48 31.9833 74.57 32.3733 74.57 32.82C74.57 33.2667 74.47 33.6633 74.27 34.01C74.0767 34.35 73.7967 34.6167 73.43 34.81C73.07 34.9967 72.6367 35.09 72.13 35.09ZM76.2661 35V34.29H77.9261V28.66H78.3661L76.4261 29.87V29.04L78.1561 27.95H78.7561V34.29H80.3161V35H76.2661ZM84.8522 35V33.47H81.4922V32.87L84.9822 27.95H85.6622V32.8H86.7422V33.47H85.6622V35H84.8522ZM84.8522 32.8V28.93H85.0722L82.1722 33.01V32.8H84.8522ZM87.6183 35V33.98H88.6383V35H87.6183ZM92.3937 35.09C92.087 35.09 91.787 35.0567 91.4937 34.99C91.2003 34.9233 90.9237 34.8267 90.6637 34.7C90.4103 34.5733 90.187 34.42 89.9937 34.24L90.3037 33.6C90.6303 33.86 90.9637 34.0533 91.3037 34.18C91.6437 34.3 92.007 34.36 92.3937 34.36C92.9003 34.36 93.297 34.2233 93.5837 33.95C93.8703 33.6767 94.0137 33.3167 94.0137 32.87C94.0137 32.41 93.877 32.0333 93.6037 31.74C93.3303 31.4467 92.9503 31.3 92.4637 31.3C92.117 31.3 91.807 31.37 91.5337 31.51C91.2603 31.6433 91.0237 31.8533 90.8237 32.14H90.2237V27.95H94.4037V28.65H91.0237V31.46H90.8037C90.9837 31.18 91.2303 30.9667 91.5437 30.82C91.8637 30.6667 92.2237 30.59 92.6237 30.59C93.077 30.59 93.467 30.6833 93.7937 30.87C94.127 31.0567 94.3837 31.3167 94.5637 31.65C94.7437 31.9833 94.8337 32.3733 94.8337 32.82C94.8337 33.2667 94.7337 33.6633 94.5337 34.01C94.3403 34.35 94.0603 34.6167 93.6937 34.81C93.3337 34.9967 92.9003 35.09 92.3937 35.09ZM98.2198 35.09C97.7464 35.09 97.2931 35.0167 96.8598 34.87C96.4264 34.7233 96.0631 34.5133 95.7698 34.24L96.0798 33.6C96.4064 33.8667 96.7431 34.06 97.0898 34.18C97.4364 34.3 97.8098 34.36 98.2098 34.36C98.7364 34.36 99.1364 34.25 99.4098 34.03C99.6831 33.8033 99.8198 33.4733 99.8198 33.04C99.8198 32.6267 99.6798 32.3133 99.3998 32.1C99.1198 31.88 98.7098 31.77 98.1698 31.77H97.1098V31.08H98.0998C98.5664 31.08 98.9364 30.96 99.2098 30.72C99.4831 30.48 99.6198 30.1533 99.6198 29.74C99.6198 29.3667 99.4931 29.0833 99.2398 28.89C98.9931 28.69 98.6364 28.59 98.1698 28.59C97.4098 28.59 96.7531 28.86 96.1998 29.4L95.8898 28.75C96.1631 28.47 96.5064 28.2533 96.9198 28.1C97.3331 27.94 97.7664 27.86 98.2198 27.86C98.9131 27.86 99.4564 28.02 99.8498 28.34C100.243 28.66 100.44 29.1033 100.44 29.67C100.44 30.1033 100.316 30.4767 100.07 30.79C99.8231 31.0967 99.4898 31.3067 99.0698 31.42V31.31C99.5698 31.39 99.9564 31.59 100.23 31.91C100.503 32.2233 100.64 32.62 100.64 33.1C100.64 33.7133 100.423 34.2 99.9898 34.56C99.5631 34.9133 98.9731 35.09 98.2198 35.09ZM104.743 35V27.95H105.573V31.15H105.593L108.973 27.95H110.033L106.143 31.59L106.153 31.17L110.313 35H109.223L105.593 31.68H105.573V35H104.743ZM111.081 35V27.95H115.821V28.63H111.881V31.06H114.111C114.878 31.06 115.468 31.2233 115.881 31.55C116.301 31.8767 116.511 32.3667 116.511 33.02C116.511 33.6667 116.301 34.16 115.881 34.5C115.468 34.8333 114.878 35 114.111 35H111.081ZM111.881 34.33H114.041C114.601 34.33 115.015 34.2233 115.281 34.01C115.555 33.79 115.691 33.46 115.691 33.02C115.691 32.5867 115.555 32.2667 115.281 32.06C115.015 31.8467 114.601 31.74 114.041 31.74H111.881V34.33Z" fill="#8F9597"/>
<defs>
<clipPath id="clip0_711_9400">
<rect width="40" height="49" fill="white" transform="matrix(0 -1 -1 0 49 40)"/>
</clipPath>
</defs>
</svg>
