<svg width="9" height="11" viewBox="0 0 9 11" fill="none" xmlns="http://www.w3.org/2000/svg">
<path d="M5.12982 1.21306C5.07605 1.08405 4.94994 1.00001 4.81011 1C4.67027 0.99999 4.54414 1.08402 4.49036 1.21302L1.02673 9.52063C0.95316 9.69709 1.03666 9.89975 1.21324 9.97328C1.38981 10.0468 1.5926 9.96336 1.66617 9.78689L2.73099 7.23291H6.88823L7.4211 8.51152L7.37277 8.39555C7.44632 8.57203 7.49106 8.46906 7.66764 8.39555C7.84423 8.32205 8.0587 8.25048 7.98515 8.07401L7.442 6.76107C7.44008 6.75617 7.43806 6.75131 7.43593 6.74652L5.12982 1.21306ZM6.59971 6.54061H3.01962L4.81002 2.24629L6.59971 6.54061Z" fill="#333333" stroke="#333333" stroke-width="0.5" stroke-linecap="round"/>
</svg>
