<svg width="20" height="20" viewBox="0 0 20 20" fill="none" xmlns="http://www.w3.org/2000/svg">
<path d="M4 8.40006H4.8M7.2 11.6001H8M8 8.00006L4 12.0001" stroke="#333333"/>
<path d="M2.33936 4.66669C4.02595 2.24871 6.82811 0.666687 9.99977 0.666687C15.1544 0.666687 19.3331 4.84536 19.3331 10C19.3331 15.1547 15.1544 19.3334 9.99977 19.3334C6.82811 19.3334 4.02595 17.7513 2.33936 15.3334M1.99984 4.66669H9.99984C10.7362 4.66669 11.3332 5.26364 11.3332 6.00002V14C11.3332 14.7364 10.7362 15.3334 9.99984 15.3334H1.99984C1.26346 15.3334 0.666504 14.7364 0.666504 14V6.00002C0.666504 5.26364 1.26346 4.66669 1.99984 4.66669Z" stroke="#333333"/>
</svg>
