<svg width="20" height="20" viewBox="0 0 20 20" fill="none" xmlns="http://www.w3.org/2000/svg">
<path d="M6.6665 7.33335H7.99984M11.9998 12.6667H13.3332M13.3332 6.66669L6.6665 13.3334M9.06844 1.05248L7.56308 2.55784C7.31606 2.80487 6.98103 2.94364 6.63169 2.94364H4.26065C3.53318 2.94364 2.94346 3.53337 2.94346 4.26083V6.63187C2.94346 6.98121 2.80468 7.31624 2.55766 7.56326L1.0523 9.06863C0.537905 9.58302 0.537905 10.417 1.0523 10.9314L2.55766 12.4368C2.80468 12.6838 2.94346 13.0188 2.94346 13.3682V15.7392C2.94346 16.4667 3.53318 17.0564 4.26065 17.0564H6.63169C6.98103 17.0564 7.31606 17.1952 7.56308 17.4422L9.06844 18.9476C9.58284 19.462 10.4168 19.462 10.9312 18.9476L12.4366 17.4422C12.6836 17.1952 13.0186 17.0564 13.368 17.0564H15.739C16.4665 17.0564 17.0562 16.4667 17.0562 15.7392V13.3682C17.0562 13.0188 17.195 12.6838 17.442 12.4368L18.9474 10.9314C19.4618 10.417 19.4618 9.58302 18.9474 9.06863L17.442 7.56326C17.195 7.31624 17.0562 6.98121 17.0562 6.63187V4.26083C17.0562 3.53337 16.4665 2.94364 15.739 2.94364H13.368C13.0186 2.94364 12.6836 2.80487 12.4366 2.55784L10.9312 1.05248C10.4168 0.538088 9.58284 0.538088 9.06844 1.05248Z" stroke="#333333"/>
</svg>
