<svg width="17" height="17" viewBox="0 0 17 17" fill="none" xmlns="http://www.w3.org/2000/svg">
<path d="M2.7285 14.926H2.7115C2.159 14.926 1.7085 14.4755 1.7085 13.923V10.9735C1.7085 10.421 2.159 9.9705 2.7115 9.9705H2.7285C3.281 9.9705 3.7315 10.421 3.7315 10.9735V13.923C3.7315 14.4755 3.281 14.926 2.7285 14.926Z" fill="#333333"/>
<path d="M14.2886 14.926H14.2716C13.7191 14.926 13.2686 14.4755 13.2686 13.923V4.7685C13.2686 4.216 13.7191 3.7655 14.2716 3.7655H14.2886C14.8411 3.7655 15.2916 4.216 15.2916 4.7685V13.923C15.2916 14.4755 14.8496 14.926 14.2886 14.926Z" fill="#333333"/>
<path d="M6.57908 14.926H6.56208C6.00958 14.926 5.55908 14.4755 5.55908 13.923V3.2215C5.55908 2.669 6.00958 2.2185 6.56208 2.2185H6.57908C7.13158 2.2185 7.58208 2.669 7.58208 3.2215V13.923C7.58208 14.4755 7.14008 14.926 6.57908 14.926Z" fill="#333333"/>
<path d="M10.438 14.926H10.421C9.86847 14.926 9.41797 14.4755 9.41797 13.923V7.43749C9.41797 6.88499 9.86847 6.43449 10.421 6.43449H10.438C10.9905 6.43449 11.441 6.88499 11.441 7.43749V13.9315C11.441 14.4755 10.9905 14.926 10.438 14.926Z" fill="#333333"/>
</svg>
