<svg width="211" height="28" viewBox="0 0 211 28" fill="none" xmlns="http://www.w3.org/2000/svg">
<path d="M78.2766 8.56464C77.8887 8.13714 77.1129 7.89285 76.2351 7.89285C75.8063 7.89285 75.3776 7.93357 74.9897 8.05571C74.3977 8.21857 73.0298 8.7275 72.7644 10.1525C72.6011 10.9668 73.1115 11.5571 74.0914 11.8625C74.4385 11.9439 74.8264 11.9846 75.1939 11.9846C76.48 11.9846 77.9704 11.4757 78.4807 10.1525C78.787 9.37893 78.542 8.87 78.2766 8.56464Z" fill="#FF0019"/>
<path d="M61.6994 12.0661C61.4952 11.9439 61.0665 11.7607 60.4949 11.6793H60.4541C60.3724 11.6793 60.2907 11.6386 60.1478 11.6386H60.0662C59.9845 11.6386 59.9029 11.5979 59.8008 11.5979L57.9226 11.435C57.8001 11.435 57.7184 11.435 57.5755 11.435H57.4122C57.0651 11.435 56.6364 11.435 56.2485 11.435H56.0852C55.9219 11.435 55.779 11.435 55.5748 11.435H55.4932C55.3298 11.435 55.1053 11.435 54.942 11.4757H54.8603C54.697 11.4757 54.5132 11.5164 54.3499 11.5164H54.2682C53.8804 11.5571 53.5333 11.5979 53.2067 11.6386H53.1658C52.8188 11.6793 52.4921 11.72 52.1451 11.8014C51.5939 11.8829 51.1243 12.005 50.7772 12.1475C50.3893 12.2696 50.1444 12.5343 49.9606 12.9211L46.8779 21.0232H52.0838L53.6558 16.7686C53.962 15.995 54.5949 14.6718 55.8402 14.0407C56.9427 13.5725 57.7184 13.3689 58.5759 13.3689C59.0046 13.3689 59.515 13.4096 60.0662 13.5318C60.1478 13.5318 60.4949 13.6539 60.8011 13.8371L61.1073 14L61.7811 12.2493L61.6994 12.0661Z" fill="#FF0019"/>
<path d="M76.9085 13.1246C76.786 12.9211 76.5206 12.7786 76.2756 12.7786H72.3967C72.0905 12.7786 71.8046 12.9821 71.723 13.2468L68.7832 20.9214H74.2545L77.0309 13.7964C77.0922 13.5929 77.0309 13.3282 76.9085 13.1246Z" fill="#FF0019"/>
<path d="M107.041 11.6793C105.245 11.6793 103.632 12.0254 102.162 12.6564L103.612 8.95143C103.693 8.78857 103.652 8.56465 103.571 8.40179C103.448 8.23893 103.265 8.13715 103.101 8.13715H98.8753C98.6099 8.13715 98.4057 8.25929 98.3241 8.52393L93.4448 20.9622H98.9161L100.631 16.6057C101.182 15.1604 102.734 14.1425 104.428 14.1425C105.327 14.1425 105.796 14.3461 105.796 14.7736C105.796 15.0789 105.755 15.3639 105.633 15.6693L103.632 20.9622H109.144L111.186 15.6693C111.349 15.1604 111.533 14.5089 111.533 14.1425C111.492 12.6157 109.818 11.6793 107.041 11.6793Z" fill="#FF0019"/>
<path d="M70.6207 8.48321C70.4982 8.32035 70.3144 8.21857 70.1511 8.21857H65.7822C65.5168 8.21857 65.3127 8.34071 65.231 8.60535L60.3926 20.9621H65.9864L70.6411 9.03285C70.7636 8.82928 70.7227 8.64606 70.6207 8.48321Z" fill="#FF0019"/>
<path d="M94.6493 11.9236C94.5268 11.7607 94.343 11.6589 94.1797 11.6589H86.3607C85.0745 11.6996 84.1354 11.7811 83.4209 11.9236C81.1548 12.4325 79.7461 13.2875 78.6845 14.8143C77.6229 16.6057 77.4392 18.275 78.1333 19.4964C78.7254 20.5143 79.9299 21.125 81.3793 21.125C82.543 21.125 83.8088 20.7382 85.0949 20.0664C85.442 19.8629 85.9115 19.5168 86.4219 19.0486L87.4019 18.1529C85.9932 21.5525 84.1558 22.2039 82.1551 22.2039C80.3994 22.2039 79.2153 21.7764 78.4804 21.5321L78.215 21.4507L77.2759 23.8325L77.5821 23.9139C78.6437 24.26 80.5831 24.4636 82.543 24.4636C85.0133 24.4636 87.0344 24.1175 88.4839 23.4457C90.2396 22.6314 90.9133 22.1632 91.3828 20.8807L94.6697 12.4936C94.7718 12.2696 94.7718 12.0661 94.6493 11.9236ZM89.0147 13.2875C82.0735 25.9904 76.0101 13.2061 89.0147 13.2875V13.2875Z" fill="#FF0019"/>
<path d="M47.9395 11.9236C47.817 11.7607 47.6333 11.6589 47.4699 11.6589H39.6917C38.4056 11.6996 37.4665 11.7811 36.7519 11.9236C34.4858 12.4325 33.0772 13.2875 32.0156 14.8143C30.954 16.6057 30.7702 18.275 31.4644 19.4964C32.0564 20.5143 33.2609 21.125 34.7104 21.125C35.8741 21.125 37.1398 20.7382 38.426 20.0664C38.773 19.8629 39.2426 19.5168 39.753 19.0486L40.4879 18.3768L39.1609 21.0232H44.673L48.0007 12.4529C48.062 12.2696 48.062 12.0661 47.9395 11.9236ZM42.1211 13.2875C35.2412 25.9904 29.1778 13.2061 42.1211 13.2875V13.2875Z" fill="#FF0019"/>
<path d="M122.945 8.3H120.985C120.515 8.3 119.229 8.7275 117.106 9.62322C115.003 10.5189 113.738 11.1907 113.35 11.6589L112.063 13.2875H114.962L113.288 17.42C113.166 17.8068 113.084 18.1529 113.084 18.4379C113.084 19.1096 113.39 19.6796 113.942 20.0664C114.758 20.6161 116.044 20.9214 117.821 20.9214C119.699 20.9214 121.107 20.6161 122.006 19.985C122.312 19.7814 122.557 19.4354 122.822 19.0079V18.5396H119.862C118.882 18.5396 119.27 17.4404 119.474 16.6668L120.883 13.2671H123.966L124.639 11.6386H121.516L122.945 8.3Z" fill="#FF0019"/>
<path d="M8.88498 4.63571C15.8466 0.279282 24.9926 2.37607 29.3615 9.31785C29.9127 10.1729 30.3414 11.0686 30.6885 11.9643C30.3006 10.5189 29.7085 9.07357 28.8511 7.70964C24.4006 0.58464 14.9687 -1.53251 7.82338 2.94607C0.637207 7.38393 -1.48597 16.7889 2.98497 23.9139C3.84241 25.2779 4.86318 26.4382 6.02685 27.4154C5.35315 26.6825 4.74069 25.9293 4.18948 25.0743C-0.179389 18.1529 1.90297 8.99214 8.88498 4.63571Z" fill="#FF0019"/>
<path d="M6.39453 13.5521C9.4364 12.3918 13.397 11.6386 18.5825 11.6793C14.9485 18.3768 11.3963 22.3261 8.33398 24.4636C12.4783 24.3821 18.7662 20.2496 25.2991 8.27964C15.6222 8.17786 9.64056 10.5596 6.39453 13.5521Z" fill="#FF0019"/>
<path d="M198.339 12.1271C198.134 12.005 197.706 11.8218 197.134 11.7403H197.093C197.012 11.7403 196.93 11.6996 196.787 11.6996H196.705C196.624 11.6996 196.542 11.6589 196.44 11.6589L194.562 11.4961C194.439 11.4961 194.358 11.4961 194.215 11.4961H194.051C193.704 11.4961 193.276 11.4961 192.888 11.4961H192.724C192.561 11.4961 192.418 11.4961 192.214 11.4961H192.132C191.969 11.4961 191.744 11.4961 191.581 11.5368H191.499C191.336 11.5368 191.152 11.5775 190.989 11.5775H190.907C190.52 11.6182 190.172 11.6589 189.846 11.6996H189.805C189.458 11.7403 189.131 11.7811 188.784 11.8625C188.233 11.9439 187.763 12.0661 187.416 12.2086C187.028 12.3307 186.784 12.5953 186.6 12.9821L183.517 21.0843H188.723L190.295 16.8296C190.601 16.0561 191.234 14.7328 192.479 14.1018C193.582 13.6336 194.358 13.43 195.215 13.43C195.644 13.43 196.154 13.4707 196.705 13.5928C196.787 13.5928 197.134 13.715 197.44 13.8982L197.747 14.0611L198.42 12.3103L198.339 12.1271Z" fill="#333333"/>
<path d="M183.027 8.66643H181.067C180.598 8.66643 179.312 9.09392 177.189 9.98964C175.086 10.8854 173.82 11.5571 173.432 12.0254L172.146 13.6539H175.045L173.371 17.7864C173.248 18.1732 173.167 18.5193 173.167 18.8043C173.167 19.4761 173.473 20.0461 174.024 20.4329C174.841 20.9825 176.127 21.2879 177.903 21.2879C179.781 21.2879 181.19 20.9825 182.088 20.3514C182.394 20.1479 182.639 19.8018 182.905 19.3743V18.8857H179.965C178.985 18.8857 179.373 17.7864 179.577 17.0129L180.986 13.6132H184.068L184.742 11.9846H181.619L183.027 8.66643Z" fill="#333333"/>
<path d="M141.952 13.5114L143.115 11.9032C143.401 11.5775 143.381 11.4554 143.381 11.4554C143.36 11.3536 143.238 11.2925 143.136 11.2314C142.768 11.0482 142.278 10.9261 141.707 10.8446C141.115 10.7632 140.502 10.7225 139.91 10.7225C138.706 10.7225 137.644 10.8446 136.766 11.1093C135.888 11.3739 135.092 11.72 134.439 12.1475C133.786 12.575 133.194 13.1043 132.724 13.6947C132.255 14.285 131.805 14.9161 131.417 15.5879C131.254 15.8729 131.07 16.1986 130.907 16.5243C130.744 16.8704 130.601 17.1757 130.519 17.4404C130.335 17.9289 130.233 18.4175 130.213 18.845C130.193 19.2725 130.274 19.6389 130.499 19.9647C130.703 20.2904 131.07 20.5347 131.601 20.7382C132.132 20.9418 132.908 21.0436 133.867 21.0436C134.153 21.0436 134.459 21.0436 134.806 21.0232C135.133 21.0029 135.48 20.9622 135.827 20.9214C136.174 20.8807 136.521 20.8197 136.868 20.7586C137.195 20.6975 137.522 20.6364 137.807 20.555C138.052 20.4736 138.277 20.4125 138.44 20.3311C138.583 20.27 138.706 20.2089 138.787 20.1275C138.869 20.0461 138.93 19.9647 138.971 19.8832C139.032 19.7814 139.073 19.6593 139.134 19.5168L139.686 18.0714C139.726 17.9697 139.727 17.9086 139.747 17.8679C139.665 17.8679 139.461 17.8679 139.216 17.8882C138.644 17.9493 138.134 17.99 137.705 18.0104C137.277 18.0307 136.889 18.0511 136.562 18.0511C135.95 18.0511 135.521 17.9289 135.276 17.705C135.011 17.4607 134.99 17.0536 135.174 16.5243C135.256 16.3004 135.378 16.0154 135.562 15.6896C136.297 14.3664 137.399 13.715 138.849 13.715C139.216 13.715 139.522 13.7354 139.808 13.7557C140.094 13.7761 140.461 13.8168 140.911 13.8575C141.115 13.8779 141.278 13.8779 141.38 13.8779C141.482 13.8779 141.564 13.8779 141.625 13.8575C141.666 13.8371 141.727 13.8168 141.768 13.7761C141.788 13.7354 141.87 13.6336 141.952 13.5114Z" fill="#333333"/>
<path d="M154.813 13.145C154.976 12.6768 155.017 12.2696 154.915 11.9236C154.813 11.5775 154.609 11.3128 154.303 11.0889C153.997 10.865 153.609 10.6818 153.119 10.58C152.629 10.4782 152.078 10.4171 151.506 10.4171C150.403 10.4171 149.403 10.5393 148.546 10.7836C147.688 11.0278 146.912 11.3536 146.28 11.7607C145.626 12.1678 145.055 12.6157 144.565 13.145C144.075 13.6743 143.626 14.2239 143.258 14.7736C142.666 15.6489 142.197 16.5446 141.89 17.4403C141.666 18.0918 141.564 18.6414 141.625 19.1096C141.686 19.5575 141.849 19.9239 142.135 20.2293C142.421 20.5346 142.829 20.7382 143.34 20.8807C143.871 21.0232 144.483 21.1046 145.157 21.1046C145.483 21.1046 145.871 21.0843 146.259 21.0639C146.668 21.0436 147.076 21.0029 147.484 20.9621C147.913 20.9214 148.301 20.8604 148.689 20.7993C149.056 20.7382 149.403 20.6568 149.669 20.5753C150.118 20.4328 150.424 20.3107 150.587 20.1886C150.73 20.0664 150.873 19.8425 150.996 19.5168L151.383 18.4378C151.445 18.2546 151.445 18.1732 151.445 18.1528C151.404 18.1325 151.322 18.1325 151.138 18.1325C151.036 18.1325 150.914 18.1325 150.791 18.1528C150.056 18.2139 149.403 18.2546 148.852 18.2954C148.301 18.3361 147.709 18.3361 147.096 18.3361C146.668 18.3157 146.382 18.2546 146.218 18.1121C146.116 18.0307 145.953 17.8271 146.075 17.4403C146.116 17.2978 146.198 17.1757 146.3 17.0332L146.361 16.9721H146.443C147.198 16.9518 148.035 16.8704 148.893 16.7889C149.75 16.6871 150.587 16.5039 151.383 16.2189C152.159 15.9543 152.874 15.5675 153.486 15.0789C154.078 14.57 154.527 13.9186 154.813 13.145ZM150.281 13.7353C150.138 14.1221 149.832 14.4071 149.321 14.57C148.872 14.7328 148.321 14.8346 147.668 14.8753L147.28 14.8957L147.505 14.57C147.892 14 148.239 13.6132 148.587 13.3893C148.934 13.145 149.26 13.0432 149.566 13.0432C149.791 13.0432 150.097 13.0636 150.24 13.2875C150.322 13.4096 150.322 13.5725 150.281 13.7353Z" fill="#333333"/>
<path d="M210.179 13.145C210.343 12.6768 210.384 12.2696 210.281 11.9236C210.179 11.5775 209.975 11.3128 209.669 11.0889C209.363 10.865 208.975 10.6818 208.485 10.58C207.995 10.4782 207.444 10.4171 206.872 10.4171C205.77 10.4171 204.769 10.5393 203.912 10.7836C203.054 11.0278 202.279 11.3536 201.646 11.7607C200.993 12.1678 200.421 12.6157 199.931 13.145C199.441 13.6743 198.992 14.2239 198.624 14.7736C198.032 15.6489 197.563 16.5446 197.257 17.4403C197.032 18.0918 196.93 18.6414 196.991 19.1096C197.052 19.5575 197.216 19.9239 197.502 20.2293C197.787 20.5346 198.196 20.7382 198.706 20.8807C199.237 21.0232 199.849 21.1046 200.523 21.1046C200.85 21.1046 201.238 21.0843 201.625 21.0639C202.034 21.0436 202.442 21.0029 202.85 20.9621C203.279 20.9214 203.667 20.8604 204.055 20.7993C204.422 20.7382 204.769 20.6568 205.035 20.5753C205.484 20.4328 205.79 20.3107 205.953 20.1886C206.096 20.0664 206.239 19.8425 206.362 19.5168L206.75 18.4378C206.811 18.2546 206.811 18.1732 206.811 18.1528C206.77 18.1325 206.688 18.1325 206.505 18.1325C206.403 18.1325 206.28 18.1325 206.158 18.1528C205.423 18.2139 204.769 18.2546 204.218 18.2954C203.667 18.3361 203.075 18.3361 202.462 18.3361C202.034 18.3157 201.748 18.2546 201.585 18.1121C201.483 18.0307 201.319 17.8271 201.442 17.4403C201.483 17.2978 201.564 17.1757 201.666 17.0536L201.727 16.9925H201.809C202.564 16.9721 203.402 16.8907 204.259 16.8093C205.116 16.7075 205.953 16.5243 206.75 16.2393C207.525 15.9746 208.24 15.5878 208.852 15.0993C209.465 14.57 209.914 13.9186 210.179 13.145ZM205.647 13.7353C205.504 14.1221 205.198 14.4071 204.688 14.57C204.239 14.7328 203.687 14.8346 203.034 14.8753L202.646 14.8957L202.871 14.57C203.259 14 203.606 13.6132 203.953 13.3893C204.3 13.145 204.626 13.0432 204.933 13.0432C205.157 13.0432 205.463 13.0636 205.606 13.2875C205.688 13.4096 205.708 13.5725 205.647 13.7353Z" fill="#333333"/>
<path d="M166.899 11.72C165.123 11.72 163.49 12.0661 162.061 12.6971L163.286 9.41965C163.286 9.41965 161.51 10.01 159.611 10.7836C157.712 11.5571 156.794 12.0864 156.794 12.0864L153.384 20.9621H158.835L160.53 16.6464C161.081 15.2011 162.612 14.1832 164.306 14.1832C165.205 14.1832 165.674 14.3868 165.674 14.8143C165.674 15.1196 165.633 15.4046 165.511 15.71L163.51 20.9621H169.002L171.043 15.71C171.207 15.2011 171.391 14.57 171.391 14.1832C171.309 12.6564 169.655 11.72 166.899 11.72Z" fill="#333333"/>
</svg>
