<svg width="16" height="16" viewBox="0 0 16 16" fill="none" xmlns="http://www.w3.org/2000/svg">
<path d="M2.35994 14.176L1.81594 14.352C1.65594 14.408 1.49594 14.248 1.55194 14.088L2.57594 11.064C2.67194 10.768 2.65594 10.456 2.52794 10.168C2.39994 9.888 2.29594 9.6 2.21594 9.304C2.06394 8.76 1.99194 8.2 1.99194 7.64C1.99194 5.984 2.64794 4.416 3.82394 3.256C4.99194 2.088 6.56794 1.44 8.22394 1.44C9.87994 1.44 11.4559 2.088 12.6319 3.256C13.7999 4.424 14.4559 5.992 14.4559 7.64C14.4559 9.296 13.7999 10.864 12.6239 12.024C11.4479 13.192 9.87193 13.84 8.21594 13.84C7.68794 13.84 7.16794 13.776 6.65594 13.648C6.37594 13.576 6.09594 13.48 5.82394 13.368C5.55994 13.256 5.27194 13.248 4.99994 13.336L2.35994 14.176Z" stroke="#333333" stroke-miterlimit="10" stroke-linecap="round" stroke-linejoin="round"/>
<path d="M7.29606 6.08C7.27206 6.04 6.67206 5.064 6.44806 4.704C6.39206 4.616 6.29606 4.568 6.19206 4.576C6.13606 4.584 6.07206 4.592 6.00006 4.6C5.40006 4.712 4.95206 5.216 4.92006 5.824C4.91206 5.936 4.91206 6.064 4.92006 6.2C5.01606 7.688 6.84806 9.752 8.37606 10.344C9.76006 10.88 10.2001 10.704 10.2401 10.704C10.8641 10.6 11.2961 10.096 11.4641 9.664C11.5361 9.472 11.5441 9.28 11.5281 9.16C11.5201 9.072 11.4641 8.992 11.3921 8.952C11.1281 8.816 10.6641 8.568 10.3201 8.416C10.1521 8.344 9.95207 8.376 9.81606 8.496C9.56006 8.728 9.12806 9.048 9.12806 9.048C8.84806 9.36 7.68006 8.68 6.84806 7.208C6.80006 7.136 6.85606 7.08 6.89606 7.04C6.94406 6.992 7.11206 6.792 7.14406 6.752C7.22406 6.664 7.32006 6.464 7.32006 6.464C7.36006 6.384 7.36806 6.312 7.36006 6.248C7.33606 6.192 7.29606 6.08 7.29606 6.08Z" stroke="#333333" stroke-miterlimit="10" stroke-linecap="round" stroke-linejoin="round"/>
</svg>
