<svg width="18" height="18" viewBox="0 0 18 18" fill="none" xmlns="http://www.w3.org/2000/svg">
<path fill-rule="evenodd" clip-rule="evenodd" d="M8.66667 3.33333C5.72115 3.33333 3.33333 5.72115 3.33333 8.66667C3.33333 11.6122 5.72115 14 8.66667 14C11.6122 14 14 11.6122 14 8.66667C14 5.72115 11.6122 3.33333 8.66667 3.33333ZM2 8.66667C2 4.98477 4.98477 2 8.66667 2C12.3486 2 15.3333 4.98477 15.3333 8.66667C15.3333 12.3486 12.3486 15.3333 8.66667 15.3333C4.98477 15.3333 2 12.3486 2 8.66667Z" fill="#737B7D"/>
<path fill-rule="evenodd" clip-rule="evenodd" d="M12.8619 12.8619C13.1223 12.6016 13.5444 12.6016 13.8047 12.8619L17.8047 16.8619C18.0651 17.1223 18.0651 17.5444 17.8047 17.8047C17.5444 18.0651 17.1223 18.0651 16.8619 17.8047L12.8619 13.8047C12.6016 13.5444 12.6016 13.1223 12.8619 12.8619Z" fill="#737B7D"/>
</svg>
