<svg width="20" height="21" viewBox="0 0 20 21" fill="none" xmlns="http://www.w3.org/2000/svg">
<path d="M2 4.33164V3.83164C1.76166 3.83164 1.55645 3.99987 1.50971 4.23359L2 4.33164ZM18 4.33164L18.4903 4.23359C18.4435 3.99987 18.2383 3.83164 18 3.83164V4.33164ZM19.3333 10.9983V11.4983C19.4831 11.4983 19.625 11.4311 19.72 11.3153C19.815 11.1995 19.853 11.0471 19.8236 10.9003L19.3333 10.9983ZM0.666667 10.9983L0.176376 10.9003C0.146999 11.0471 0.185026 11.1995 0.279996 11.3153C0.374965 11.4311 0.51687 11.4983 0.666667 11.4983V10.9983ZM4.66667 14.9983H4.16667V15.4983H4.66667V14.9983ZM15.3333 14.9983V15.4983H15.8333V14.9983H15.3333ZM0 20.8316H20V19.8316H0V20.8316ZM1.5 10.9983V20.3316H2.5V10.9983H1.5ZM17.5 10.9983V20.3316H18.5V10.9983H17.5ZM2 4.83164H18V3.83164H2V4.83164ZM17.5097 4.4297L18.843 11.0964L19.8236 10.9003L18.4903 4.23359L17.5097 4.4297ZM19.3333 10.4983H0.666667V11.4983H19.3333V10.4983ZM1.15696 11.0964L2.49029 4.4297L1.50971 4.23359L0.176376 10.9003L1.15696 11.0964ZM1.33333 2.16498H18.6667V1.16498H1.33333V2.16498ZM4.16667 10.9983V14.9983H5.16667V10.9983H4.16667ZM4.66667 15.4983H15.3333V14.4983H4.66667V15.4983ZM15.8333 14.9983V10.9983H14.8333V14.9983H15.8333Z" fill="black"/>
</svg>
