<svg width="24" height="25" viewBox="0 0 24 25" fill="none" xmlns="http://www.w3.org/2000/svg">
<path fill-rule="evenodd" clip-rule="evenodd" d="M2.5 6.99829C2.5 6.16986 3.17157 5.49829 4 5.49829H15C15.8284 5.49829 16.5 6.16986 16.5 6.99829V17.4983H4C3.17157 17.4983 2.5 16.8267 2.5 15.9983V6.99829ZM4 6.49829C3.72386 6.49829 3.5 6.72215 3.5 6.99829V15.9983C3.5 16.2744 3.72386 16.4983 4 16.4983H15.5V6.99829C15.5 6.72215 15.2761 6.49829 15 6.49829H4Z" fill="#333333"/>
<path fill-rule="evenodd" clip-rule="evenodd" d="M15.5 9.99829C15.5 9.72215 15.7239 9.49829 16 9.49829H18.8258C19.2637 9.49829 19.6797 9.68963 19.9647 10.0221L21.1389 11.392C21.3719 11.6639 21.5 12.0102 21.5 12.3682V15.9983C21.5 16.8267 20.8284 17.4983 20 17.4983H16C15.7239 17.4983 15.5 17.2744 15.5 16.9983V9.99829ZM16.5 10.4983V16.4983H20C20.2761 16.4983 20.5 16.2744 20.5 15.9983V12.3682C20.5 12.2489 20.4573 12.1334 20.3796 12.0428L19.2054 10.6729C19.1104 10.5621 18.9717 10.4983 18.8258 10.4983H16.5Z" fill="#333333"/>
<path fill-rule="evenodd" clip-rule="evenodd" d="M6.5 17.4983C5.94772 17.4983 5.5 17.946 5.5 18.4983C5.5 19.0506 5.94772 19.4983 6.5 19.4983C7.05228 19.4983 7.5 19.0506 7.5 18.4983C7.5 17.946 7.05228 17.4983 6.5 17.4983ZM4.5 18.4983C4.5 17.3937 5.39543 16.4983 6.5 16.4983C7.60457 16.4983 8.5 17.3937 8.5 18.4983C8.5 19.6029 7.60457 20.4983 6.5 20.4983C5.39543 20.4983 4.5 19.6029 4.5 18.4983Z" fill="#333333"/>
<path fill-rule="evenodd" clip-rule="evenodd" d="M12.5 17.4983C11.9477 17.4983 11.5 17.946 11.5 18.4983C11.5 19.0506 11.9477 19.4983 12.5 19.4983C13.0523 19.4983 13.5 19.0506 13.5 18.4983C13.5 17.946 13.0523 17.4983 12.5 17.4983ZM10.5 18.4983C10.5 17.3937 11.3954 16.4983 12.5 16.4983C13.6046 16.4983 14.5 17.3937 14.5 18.4983C14.5 19.6029 13.6046 20.4983 12.5 20.4983C11.3954 20.4983 10.5 19.6029 10.5 18.4983Z" fill="#333333"/>
<path fill-rule="evenodd" clip-rule="evenodd" d="M17.5 12.9983C17.5 12.7222 17.7239 12.4983 18 12.4983H19C19.2761 12.4983 19.5 12.7222 19.5 12.9983C19.5 13.2744 19.2761 13.4983 19 13.4983H18C17.7239 13.4983 17.5 13.2744 17.5 12.9983Z" fill="#333333"/>
</svg>
