<svg width="36" height="24" viewBox="0 0 36 24" fill="none" xmlns="http://www.w3.org/2000/svg">
<path d="M17.1879 12.8062V16.2741H16.0801V7.71005H19.0182C19.3689 7.70277 19.7176 7.76454 20.0441 7.89179C20.3706 8.01904 20.6686 8.20925 20.9207 8.45145C21.1754 8.67894 21.3781 8.95793 21.5151 9.26967C21.6522 9.58141 21.7205 9.91869 21.7154 10.2588C21.7227 10.6008 21.6555 10.9402 21.5183 11.254C21.3811 11.5677 21.1773 11.8483 20.9207 12.0764C20.4069 12.563 19.7728 12.806 19.0182 12.8055H17.1879V12.8062ZM17.1879 8.76441V11.7539H19.0457C19.2494 11.7599 19.4521 11.7236 19.6408 11.6474C19.8295 11.5711 20.0002 11.4566 20.1418 11.3111C20.2827 11.1751 20.3947 11.0124 20.4711 10.8327C20.5476 10.6529 20.587 10.4598 20.587 10.2646C20.587 10.0695 20.5476 9.87634 20.4711 9.69659C20.3947 9.51685 20.2827 9.35415 20.1418 9.21813C20.002 9.06958 19.8319 8.95225 19.6429 8.87391C19.454 8.79557 19.2504 8.75801 19.0457 8.76372H17.1879V8.76441Z" fill="#5F6368"/>
<path d="M24.2681 10.2231C25.0869 10.2231 25.7332 10.4404 26.2071 10.875C26.6809 11.3096 26.9176 11.9055 26.9172 12.6626V16.2739H25.8575V15.4608H25.8094C25.3507 16.1304 24.7406 16.4652 23.9791 16.4652C23.3291 16.4652 22.7853 16.2739 22.3476 15.8913C22.1376 15.7156 21.9697 15.4957 21.8562 15.2474C21.7426 14.9992 21.6863 14.7289 21.6912 14.4563C21.6912 13.85 21.922 13.3678 22.3834 13.0097C22.8449 12.6517 23.461 12.4722 24.2316 12.4713C24.8894 12.4713 25.4312 12.5908 25.8568 12.83V12.5785C25.8581 12.3927 25.8177 12.2089 25.7385 12.0405C25.6594 11.8721 25.5435 11.7232 25.3993 11.6048C25.1063 11.3423 24.7245 11.1991 24.33 11.2037C23.7112 11.2037 23.2215 11.4629 22.861 11.9813L21.8853 11.3711C22.422 10.6058 23.2162 10.2231 24.2681 10.2231ZM22.8348 14.4802C22.8341 14.6202 22.867 14.7584 22.9309 14.8832C22.9948 15.008 23.0879 15.1158 23.2022 15.1977C23.4472 15.3891 23.7514 15.4905 24.063 15.4847C24.5305 15.4839 24.9786 15.2991 25.3091 14.9708C25.6761 14.6278 25.8596 14.2253 25.8596 13.7634C25.5142 13.4901 25.0325 13.3534 24.4146 13.3534C23.9646 13.3534 23.5894 13.4612 23.2889 13.6766C22.9855 13.8953 22.8348 14.1611 22.8348 14.4802V14.4802Z" fill="#5F6368"/>
<path d="M33 10.4146L29.3009 18.8569H28.1573L29.53 15.9029L27.0977 10.4146H28.3018L30.0598 14.6238H30.0839L31.7938 10.4146H33Z" fill="#5F6368"/>
<path d="M12.7115 12.0585C12.7119 11.7232 12.6833 11.3885 12.6261 11.0581H7.9541V12.9529H10.63C10.5753 13.2556 10.4594 13.5441 10.2893 13.801C10.1193 14.058 9.89859 14.2781 9.64058 14.448V15.678H11.2376C12.1727 14.8218 12.7115 13.5556 12.7115 12.0585Z" fill="#4285F4"/>
<path d="M7.95375 16.8665C9.29069 16.8665 10.4164 16.4305 11.2373 15.6788L9.64023 14.4489C9.19573 14.7482 8.62325 14.919 7.95375 14.919C6.66154 14.919 5.56474 14.0539 5.17254 12.8882H3.52734V14.1557C3.93969 14.9706 4.57197 15.6556 5.3536 16.1342C6.13523 16.6129 7.03545 16.8664 7.95375 16.8665V16.8665Z" fill="#34A853"/>
<path d="M5.17273 12.8881C4.96538 12.2772 4.96538 11.6157 5.17273 11.0049V9.7373H3.52753C3.18065 10.4228 3 11.1793 3 11.9465C3 12.7136 3.18065 13.4702 3.52753 14.1556L5.17273 12.8881Z" fill="#FBBC04"/>
<path d="M7.95375 8.97414C8.66026 8.96268 9.34294 9.22777 9.85422 9.71212L11.2682 8.30791C10.3716 7.47158 9.18377 7.01242 7.95375 7.02669C7.03545 7.02673 6.13523 7.28024 5.3536 7.75891C4.57197 8.23758 3.93969 8.92257 3.52734 9.73741L5.17254 11.005C5.56474 9.83922 6.66154 8.97414 7.95375 8.97414Z" fill="#EA4335"/>
</svg>
