<svg width="36" height="24" viewBox="0 0 36 24" fill="none" xmlns="http://www.w3.org/2000/svg">
<path d="M21.6676 4.89573L14.0093 4.93945L14.3325 19.1047L21.9908 19.061L21.6676 4.89573Z" fill="#FF5F00"/>
<path d="M14.4886 12.0336C14.4222 9.15419 15.6873 6.59269 17.6842 4.92853C16.1609 3.73522 14.2563 3.01987 12.1967 3.03163C7.31757 3.05949 3.46307 7.11324 3.57797 12.0959C3.69287 17.0786 7.73328 21.0873 12.6124 21.0594C14.672 21.0476 16.5431 20.3108 18.011 19.1004C15.9385 17.4845 14.555 14.9131 14.4886 12.0336Z" fill="#EB001B"/>
<path d="M32.4219 11.9046C32.5368 16.8873 28.6823 20.941 23.8031 20.9689C21.7436 20.9806 19.8389 20.2653 18.3156 19.072C20.337 17.4077 21.5776 14.8463 21.5112 11.9669C21.4448 9.08744 20.0619 6.54107 17.9888 4.90014C19.4567 3.68975 21.3279 2.95285 23.3874 2.94109C28.2666 2.91323 32.3075 6.94694 32.4219 11.9046Z" fill="#F79E1B"/>
</svg>
