<svg width="36" height="24" viewBox="0 0 36 24" fill="none" xmlns="http://www.w3.org/2000/svg">
<path d="M29.9158 7.6543H24.1401C24.4766 9.56084 26.3271 11.3552 28.3457 11.3552H32.9439C33 11.187 32.9999 10.9066 32.9999 10.7384C32.9999 9.05617 31.5981 7.6543 29.9158 7.6543Z" fill="url(#paint0_linear_1406_17354)"/>
<path d="M24.6445 11.6914V16.3456H27.4483V13.8783H29.9156C31.2613 13.8783 32.4389 12.9251 32.8314 11.6914H24.6445Z" fill="#4FAD50"/>
<path d="M14.7759 7.6543V16.2898H17.2432C17.2432 16.2898 17.86 16.2898 18.1964 15.673C19.8787 12.3646 20.3834 11.3552 20.3834 11.3552H20.7198V16.2898H23.5235V7.6543H21.0563C21.0563 7.6543 20.4394 7.71038 20.103 8.27112C18.7011 11.1309 17.9161 12.5889 17.9161 12.5889H17.5796V7.6543H14.7759Z" fill="#4FAD50"/>
<path d="M3 16.346V7.71045H5.80374C5.80374 7.71045 6.58879 7.71045 7.03739 8.94409C8.15889 12.1964 8.27104 12.645 8.27104 12.645C8.27104 12.645 8.49533 11.86 9.50468 8.94409C9.95327 7.71045 10.7383 7.71045 10.7383 7.71045H13.5421V16.346H10.7383V11.6918H10.4019L8.83179 16.346H7.59814L6.02805 11.6918H5.6916V16.346H3Z" fill="#4FAD50"/>
<defs>
<linearGradient id="paint0_linear_1406_17354" x1="24.1302" y1="9.53129" x2="32.9801" y2="9.53129" gradientUnits="userSpaceOnUse">
<stop stop-color="#27B1E6"/>
<stop offset="1" stop-color="#148ACA"/>
</linearGradient>
</defs>
</svg>
