<svg width="49" height="40" viewBox="0 0 49 40" fill="none" xmlns="http://www.w3.org/2000/svg">
<g clip-path="url(#clip0_519_4859)">
<path d="M49 20H34.8654C32.2633 20 30.1538 17.9013 30.1538 15.3125V0L3.76923 0C1.68755 0 0 1.67893 0 3.75L0 36.25C0 38.3211 1.68755 40 3.76923 40L45.2308 40C47.3125 40 49 38.3211 49 36.25V20ZM48.4167 16.875H34.8654C33.998 16.875 33.2949 16.1754 33.2949 15.3125V0.673077L48.4167 16.875Z" fill="#4C5256"/>
<path d="M5.913 33V25.245H7.057V33H5.913ZM9.17784 33V25.245H14.2598V26.158H10.2888V28.6H14.0068V29.524H10.2888V32.076H14.2598V33H9.17784ZM18.4874 33.099C17.8641 33.099 17.2994 33.022 16.7934 32.868C16.2874 32.7067 15.8474 32.4793 15.4734 32.186L15.8584 31.284C16.1078 31.4747 16.3644 31.6323 16.6284 31.757C16.8998 31.8817 17.1858 31.977 17.4864 32.043C17.7944 32.1017 18.1281 32.131 18.4874 32.131C19.1034 32.131 19.5544 32.021 19.8404 31.801C20.1338 31.581 20.2804 31.2913 20.2804 30.932C20.2804 30.624 20.1778 30.3857 19.9724 30.217C19.7744 30.0483 19.4224 29.9127 18.9164 29.81L17.7174 29.568C17.0061 29.4213 16.4744 29.183 16.1224 28.853C15.7778 28.5157 15.6054 28.0573 15.6054 27.478C15.6054 27.0087 15.7301 26.598 15.9794 26.246C16.2288 25.894 16.5734 25.6227 17.0134 25.432C17.4608 25.2413 17.9814 25.146 18.5754 25.146C19.1254 25.146 19.6314 25.2267 20.0934 25.388C20.5554 25.542 20.9441 25.773 21.2594 26.081L20.8854 26.95C20.5554 26.664 20.2034 26.455 19.8294 26.323C19.4554 26.1837 19.0301 26.114 18.5534 26.114C17.9888 26.114 17.5451 26.2313 17.2224 26.466C16.9071 26.7007 16.7494 27.0197 16.7494 27.423C16.7494 27.7457 16.8484 27.9987 17.0464 28.182C17.2518 28.3653 17.5891 28.5047 18.0584 28.6L19.2574 28.831C19.9981 28.985 20.5444 29.2233 20.8964 29.546C21.2484 29.8613 21.4244 30.2977 21.4244 30.855C21.4244 31.3023 21.3034 31.6947 21.0614 32.032C20.8268 32.3693 20.4894 32.6333 20.0494 32.824C19.6094 33.0073 19.0888 33.099 18.4874 33.099Z" fill="white"/>
</g>
<defs>
<clipPath id="clip0_519_4859">
<rect width="40" height="49" fill="white" transform="matrix(0 -1 -1 0 49 40)"/>
</clipPath>
</defs>
</svg>
