<svg width="49" height="40" viewBox="0 0 49 40" fill="none" xmlns="http://www.w3.org/2000/svg">
<g clip-path="url(#clip0_519_4853)">
<path d="M49 20H34.8654C32.2633 20 30.1538 17.9013 30.1538 15.3125V0L3.76923 0C1.68755 0 0 1.67893 0 3.75L0 36.25C0 38.3211 1.68755 40 3.76923 40L45.2308 40C47.3125 40 49 38.3211 49 36.25V20ZM48.4167 16.875H34.8654C33.998 16.875 33.2949 16.1754 33.2949 15.3125V0.673077L48.4167 16.875Z" fill="#88C0C6"/>
<path d="M8.223 33.099C7.695 33.099 7.189 33.022 6.705 32.868C6.221 32.7067 5.81767 32.4793 5.495 32.186L5.891 31.317C6.25033 31.5957 6.617 31.801 6.991 31.933C7.365 32.065 7.76467 32.131 8.19 32.131C8.73267 32.131 9.14333 32.0173 9.422 31.79C9.708 31.5627 9.851 31.2363 9.851 30.811C9.851 30.393 9.708 30.0777 9.422 29.865C9.14333 29.645 8.729 29.535 8.179 29.535H6.98V28.611H8.091C8.56033 28.611 8.93433 28.4937 9.213 28.259C9.49167 28.017 9.631 27.6907 9.631 27.28C9.631 26.906 9.50267 26.62 9.246 26.422C8.98933 26.2167 8.62267 26.114 8.146 26.114C7.33933 26.114 6.63167 26.3963 6.023 26.961L5.638 26.092C5.93867 25.7913 6.32 25.5603 6.782 25.399C7.244 25.2303 7.728 25.146 8.234 25.146C9.01133 25.146 9.62367 25.3257 10.071 25.685C10.5183 26.037 10.742 26.5283 10.742 27.159C10.742 27.6357 10.6063 28.0427 10.335 28.38C10.071 28.7173 9.708 28.941 9.246 29.051V28.93C9.796 29.018 10.2177 29.238 10.511 29.59C10.8117 29.9347 10.962 30.3673 10.962 30.888C10.962 31.5773 10.7163 32.12 10.225 32.516C9.741 32.9047 9.07367 33.099 8.223 33.099ZM12.8087 33V25.245H15.4927C16.3654 25.245 17.1024 25.3953 17.7037 25.696C18.3124 25.9967 18.7707 26.4367 19.0787 27.016C19.394 27.588 19.5517 28.2883 19.5517 29.117C19.5517 29.9383 19.394 30.6387 19.0787 31.218C18.7707 31.7973 18.3124 32.241 17.7037 32.549C17.1024 32.8497 16.3654 33 15.4927 33H12.8087ZM13.9527 32.043H15.4267C16.424 32.043 17.1647 31.801 17.6487 31.317C18.14 30.833 18.3857 30.0997 18.3857 29.117C18.3857 28.1343 18.14 27.4047 17.6487 26.928C17.1647 26.444 16.424 26.202 15.4267 26.202H13.9527V32.043Z" fill="white"/>
</g>
<defs>
<clipPath id="clip0_519_4853">
<rect width="40" height="49" fill="white" transform="matrix(0 -1 -1 0 49 40)"/>
</clipPath>
</defs>
</svg>
