<svg width="28" height="28" viewBox="0 0 28 28" fill="none" xmlns="http://www.w3.org/2000/svg">
<rect x="0.5" y="0.5" width="27" height="27" rx="5.5" fill="white" stroke="#F3F3F3"/>
<path d="M21.2001 14.0001L14.2913 20.9089C13.3365 21.8637 12.0415 22.4001 10.6913 22.4001C7.87949 22.4001 5.6001 20.1207 5.6001 17.3089C5.6001 15.9587 6.13649 14.6637 7.09127 13.7089L14.206 6.59421C14.8425 5.95769 15.7058 5.6001 16.606 5.6001C18.4805 5.6001 20.0001 7.11969 20.0001 8.99421C20.0001 9.89438 19.6425 10.7577 19.006 11.3942L12.0972 18.303C11.7789 18.6213 11.3472 18.8001 10.8972 18.8001C9.9599 18.8001 9.2001 18.0403 9.2001 17.103C9.2001 16.653 9.37889 16.2213 9.69715 15.903L16.4001 9.2001" stroke="#E41434"/>
</svg>
