<svg width="13" height="12" viewBox="0 0 13 12" fill="none" xmlns="http://www.w3.org/2000/svg">
<path d="M5 5L5 9C5 9.27614 5.22386 9.5 5.5 9.5C5.77614 9.5 6 9.27614 6 9L6 5C6 4.72386 5.77614 4.5 5.5 4.5C5.22386 4.5 5 4.72386 5 5ZM7.5 4.5C7.77614 4.5 8 4.72386 8 5V9C8 9.27614 7.77614 9.5 7.5 9.5C7.22386 9.5 7 9.27614 7 9V5C7 4.72386 7.22386 4.5 7.5 4.5ZM8.5 2H11.5C11.7761 2 12 2.22386 12 2.5C12 2.77614 11.7761 3 11.5 3H10.9475L10.1946 9.77608C10.0539 11.0422 8.98378 12 7.70991 12H5.29008C4.01621 12 2.94605 11.0422 2.80537 9.77608L2.05247 3H1.5C1.22386 3 1 2.77614 1 2.5C1 2.22386 1.22386 2 1.5 2H4.5C4.5 0.89543 5.39543 0 6.5 0C7.60457 0 8.5 0.895431 8.5 2ZM6.5 1C5.94772 1 5.5 1.44772 5.5 2H7.5C7.5 1.44772 7.05229 1 6.5 1ZM3.05863 3L3.79925 9.66565C3.88366 10.4253 4.52575 11 5.29008 11H7.70991C8.47423 11 9.11633 10.4253 9.20073 9.66565L9.94136 3H3.05863Z" fill="#333333"/>
</svg>
